<?xml version="1.0" encoding="utf-8"?>
<!-- Generator: Adobe Illustrator 28.2.0, SVG Export Plug-In . SVG Version: 6.00 Build 0)  -->
<svg version="1.1" id="Capa_1" xmlns="http://www.w3.org/2000/svg" xmlns:xlink="http://www.w3.org/1999/xlink" x="0px" y="0px"
	 viewBox="0 0 250 250" style="enable-background:new 0 0 250 250;" xml:space="preserve">
<g>
	<path d="M223.8,125.3c0-9.3,0-18.7,0-28c0-22,0-44.8,0-67.1c0-8.4-3.1-16-8.6-21.6C209.7,3.1,202.1,0,193.7,0C147.2,0,100,0,53.4,0
		c-8.4,0-16,3-21.5,8.6c-5.5,5.5-8.6,13.2-8.6,21.5c0,63.2,0,127.2,0,190.4c0,8.4,3,16,8.6,21.5c5.5,5.5,13.2,8.6,21.5,8.6
		c18.3,0,37,0,56,0c27.6,0,55.7,0,84.2,0c2.7,0,5.2-0.3,7.5-0.8c13.7-3.3,22.6-14.8,22.6-29.2c0-22.5,0-45.4,0-67.5
		C223.8,143.8,223.8,134.5,223.8,125.3z M215.2,30.9c0,62.9,0,125.9,0,188.8c0,6.7-2.1,12.3-6.1,16.3c-4,3.9-9.6,6-16.3,6
		c-46.2,0-92.5,0-138.7,0c-13.5,0-22.2-8.7-22.2-22.2c0-22.8,0-45.6,0-68.4l0-53.2c0-22.4,0-44.8,0-67.2c0-13.8,8.6-22.4,22.5-22.4
		c24,0,48.1,0,72.1,0c22.1,0,44.2,0,66.3,0c6.7,0,12.4,2.1,16.3,6C213.1,18.6,215.2,24.2,215.2,30.9z"/>
	<path d="M40,61.3c0,9.1,5.1,14.1,14.2,14.1c16.6,0,33.3,0,49.9,0l19.2,0l19.8,0c6.6,0,13.2,0,19.8,0c10.1,0,20.3,0,30.4,0
		c8.6,0,13.7-5.2,13.7-13.8c0-8.5,0-19.8,0-31.3c0-8.2-5.3-13.6-13.4-13.6c-45.2,0-92.4,0-140.2,0C45.3,16.7,40,22,40,30.2
		c0,9.3,0,18.8,0,28L40,61.3z M48.6,59.1c0-9.5,0-19,0-28.5c0-4,1.3-5.3,5.3-5.3c46.4,0,92.8,0,139.2,0c4,0,5.3,1.3,5.4,5.3
		c0,10.2,0,20.6,0,30.8c0,4-1.4,5.4-5.4,5.4c-17.3,0-34.6,0-51.8,0l-18,0h-18.8c-16.7,0-33.4,0-50.1,0c-4.7,0-5.9-1.2-5.9-5.9
		L48.6,59.1z"/>
	<path d="M193.9,141.9c-7.7,0-15.7,0-23.7,0c-7.9,0-13.3,5.3-13.3,13.2c0,21.3,0,43.4,0,65.7c0,7.9,5.3,13.2,13.3,13.2
		c3.7,0,7.4,0,11,0c4.3,0,8.5,0,12.5,0c8.4,0,13.6-5.3,13.6-13.7c0-7.5,0-15,0-22.4c0-3.2,0-6.5,0-9.7c0-3.4,0-6.8,0-10.1
		c0-7.5,0-15.3,0-23C207.1,147.2,201.8,141.9,193.9,141.9z M165.4,178.2c0-7.5,0-14.9,0-22.4c0-4,1.3-5.3,5.3-5.4
		c3.4,0,7.5,0,11.8,0c3.5,0,7.2,0,10.9,0c3.7,0,5.1,1.4,5.1,5.1c0,21.5,0,43.2,0,64.7c0,3.7-1.4,5.1-5.1,5.1c-7.6,0-15.3,0-22.9,0
		c-3.7,0-5.1-1.4-5.1-5.1c0-7.8,0-15.7,0-23.3l0-9.3L165.4,178.2z"/>
	<path d="M52.6,133.8c4,0,8.1,0.1,12.4,0.1c4.1,0,8.3,0,12.7-0.1c7.3-0.1,12.6-5.4,12.7-12.7c0.1-5.2,0.1-10.6,0-16.4
		c-0.1-7.3-5.5-12.7-12.8-12.8c-2.9,0-5.8,0-8.6,0c-1.2,0-2.4,0-3.7,0c-1.3,0-2.7,0-4,0c-2.9,0-5.8,0-8.8,0
		C45.6,92,40.2,97.4,40,104.3c-0.1,5.4-0.1,11,0,16.9C40.1,128.3,45.6,133.7,52.6,133.8z M48.6,105.1c0-3.2,1.5-4.7,4.7-4.7
		c1.6,0,3.2,0,4.8,0c1.2,0,2.4,0,3.6,0c2.4,0,4.8,0,7.2,0c2.7,0,5.5,0,8.2,0c3.2,0,4.7,1.5,4.7,4.7c0,5,0,10.2,0,15.4
		c0,3.2-1.5,4.7-4.7,4.7c-7.9,0-15.9,0-23.7,0c-3.2,0-4.7-1.5-4.7-4.7C48.6,115.4,48.6,110.3,48.6,105.1z"/>
	<path d="M111.1,133.8c1.6,0,3.2,0,4.8,0c1.3,0,2.6,0,3.8,0c1.3,0,2.5,0,3.8,0c1.3,0,2.6,0,3.8,0c2.8,0,5.7,0,8.5,0
		c7.4-0.1,12.8-5.5,12.9-12.8c0.1-4.8,0.1-9.9,0-16.2c-0.1-7.6-5.4-12.9-12.9-13c-8.4-0.1-16.6-0.1-24.5,0
		c-7.4,0-12.8,5.4-12.9,12.8c-0.1,5.7-0.1,11.2,0,16.4C98.5,128.3,103.9,133.7,111.1,133.8z M116.5,100.4c1.2,0,2.4,0,3.6,0
		c2.4,0,4.8,0,7.2,0c2.7,0,5.5,0,8.2,0c3.2,0,4.7,1.5,4.7,4.7c0,5,0,10.2,0,15.4c0,3.2-1.5,4.7-4.7,4.7c-7.9,0-15.9,0-23.7,0
		c-3.2,0-4.7-1.5-4.7-4.7c0-5,0-10.2,0-15.4c0-3.2,1.5-4.7,4.7-4.7C113.3,100.4,114.9,100.4,116.5,100.4z"/>
	<path d="M194.5,91.8c-2.9,0-5.8,0-8.6,0c-1.3,0-2.6,0-3.8,0c-1.3,0-2.6,0-3.8,0c-2.8,0-5.6,0-8.5,0c-7.4,0.1-12.8,5.4-12.9,12.8
		c-0.1,5.4-0.1,10.9,0,16.4c0.1,7.2,5.5,12.7,12.6,12.8c4.1,0,8.3,0.1,12.5,0.1c4.2,0,8.4,0,12.5-0.1c7.1-0.1,12.5-5.4,12.6-12.5
		c0.1-5.6,0.1-11.3,0-16.9C207,97.3,201.6,91.9,194.5,91.8z M170.3,125.2c-3.4,0-4.9-1.4-4.9-4.7c0-5.4,0-10.5,0-15.4
		c0-3.2,1.5-4.6,4.7-4.6c8.5,0,16.2,0,23.7,0c3.1,0,4.6,1.5,4.6,4.7c0,5.5,0,10.5,0,15.4c0,3.1-1.5,4.6-4.7,4.6c-2.8,0-5.6,0-8.4,0
		c-1.2,0-2.4,0-3.6,0c-1.1,0-2.3,0-3.4,0C175.7,125.2,173,125.2,170.3,125.2z"/>
	<path d="M77.7,141.9c-2.9,0-5.8,0-8.6,0c-2.5,0-5,0-7.6,0c-2.8,0-5.7,0-8.5,0c-7.4,0.1-12.8,5.5-12.9,12.8c-0.1,4.8-0.1,10,0,16.2
		c0.1,7.6,5.4,12.9,12.9,13c4.2,0,8.3,0,12.4,0c4.1,0,8.2,0,12.1,0c7.4-0.1,12.8-5.4,12.9-12.8c0.1-5.6,0.1-11.2,0-16.4
		C90.2,147.4,84.9,142,77.7,141.9z M81.7,170.4c0,3.3-1.5,4.8-4.8,4.8c-7.8,0-15.7,0-23.5,0c-3.3,0-4.8-1.5-4.8-4.8
		c0-5,0-10.1,0-15.1c0-3.3,1.5-4.8,4.8-4.8c1.5,0,3.1,0,4.6,0c1.2,0,2.4,0,3.6,0c2.4,0,4.8,0,7.2,0c2.7,0,5.4,0,8.2,0
		c3.4,0,4.8,1.5,4.8,4.8C81.8,160.3,81.8,165.4,81.7,170.4z"/>
	<path d="M111.2,183.8c1.5,0,3.1,0,4.7,0c1.2,0,2.5,0,3.7,0c1.2,0,2.5,0,3.7,0c1.3,0,2.6,0,3.9,0c2.8,0,5.7,0,8.5,0
		c7.6-0.1,12.9-5.4,13-12.9c0.1-5.5,0.1-10.9,0-16.2c-0.1-7.5-5.4-12.8-13-12.9c-8.3,0-16.4,0-24.2,0c-7.6,0-12.9,5.3-13,12.9
		c0,5.4,0,10.9,0,16.2C98.5,178.3,103.9,183.7,111.2,183.8z M116.4,150.5c1.2,0,2.4,0,3.6,0c2.4,0,4.8,0,7.2,0c2.7,0,5.4,0,8.2,0
		c3.4,0,4.8,1.5,4.8,4.8c0,5,0,10.1,0,15.1c0,3.3-1.5,4.8-4.8,4.8c-7.8,0-15.7,0-23.5,0c-3.3,0-4.8-1.5-4.8-4.8c0-5,0-10.1,0-15.1
		c0-3.3,1.5-4.8,4.8-4.8C113.4,150.5,114.9,150.5,116.4,150.5z"/>
	<path d="M77.7,192c-8.2-0.1-16.6-0.1-25,0c-7.1,0.1-12.6,5.5-12.7,12.7c-0.1,5.4-0.1,10.9,0,16.4c0.1,7.3,5.5,12.7,12.9,12.8
		c2.8,0,5.7,0,8.5,0c1.2,0,2.5,0,3.7,0c1.3,0,2.6,0,3.9,0c1.3,0,2.5,0,3.8,0c1.6,0,3.2,0,4.8,0c7.1-0.1,12.5-5.5,12.6-12.5
		c0.1-5.5,0.1-11.2,0-16.9C90.2,197.4,84.8,192,77.7,192z M81.7,220.7c0,3.1-1.5,4.6-4.7,4.7c-2.8,0-5.6,0-8.4,0c-2.4,0-4.8,0-7.1,0
		c-2.7,0-5.5,0-8.2,0c-3.1,0-4.6-1.5-4.7-4.7c0-5.5,0-10.5,0-15.4c0-3.2,1.5-4.6,4.7-4.7c4.1,0,8.1,0,12,0c4,0,7.9,0,11.7,0
		c3.2,0,4.6,1.5,4.7,4.7C81.8,210.6,81.8,215.8,81.7,220.7z"/>
	<path d="M136.2,192c-7.8-0.1-15.9-0.1-25,0c-7.2,0.1-12.6,5.5-12.7,12.7c-0.1,5.1-0.1,10.4,0,16.4c0.1,7.3,5.5,12.7,12.8,12.8
		c2.9,0,5.8,0,8.6,0c1.2,0,2.5,0,3.7,0c1.3,0,2.7,0,4,0c1.3,0,2.6,0,3.8,0c1.6,0,3.3,0,4.9,0c7-0.1,12.3-5.5,12.4-12.4
		c0.1-5.3,0.1-10.8,0-16.9C148.6,197.4,143.2,192,136.2,192z M135.3,200.6c3.4,0,4.8,1.5,4.8,4.8c0,5.9,0,10.7,0,15.4
		c0,3-1.6,4.6-4.5,4.6c-7.8,0-15.8,0-24,0c-3,0-4.5-1.5-4.6-4.5c-0.1-5-0.1-10.3,0-15.6c0-3,1.5-4.5,4.5-4.6c1.6,0,3.2,0,4.8,0
		c1.2,0,2.4,0,3.6,0c1.2,0,2.4,0,3.6,0c1.2,0,2.3,0,3.5,0C129.7,200.5,132.5,200.5,135.3,200.6z"/>
	<path d="M182,62.8C182,62.8,182,62.8,182,62.8c6.7,0,12.3-5.3,12.6-12c0.1-1.1,0-2.2,0-3.2c0-0.5,0-1,0-1.5c0-0.5,0-1,0-1.6
		c0-1.1,0-2.3,0-3.4c-0.3-6.7-5.9-12-12.6-12c0,0,0,0,0,0c-6.7,0-12.3,5.4-12.6,12c-0.1,3.2-0.1,6.4,0,9.6
		C169.7,57.5,175.3,62.8,182,62.8z M186,50.5c-0.1,2.1-1.8,3.8-4,3.8c0,0,0,0,0,0c-2.1,0-3.7-1.6-4-3.8c0-0.2,0-0.3,0-0.5v-3.8h0V46
		c0-0.5,0-0.9,0-1.4c0-1,0-2,0-3c0.2-2.2,1.9-3.8,4-3.8c0,0,0,0,0,0c2.2,0,3.9,1.6,4,3.8C186.1,44.6,186.1,47.6,186,50.5z"/>
</g>
</svg>
