<?xml version="1.0" encoding="utf-8"?>
<!-- Generator: Adobe Illustrator 28.2.0, SVG Export Plug-In . SVG Version: 6.00 Build 0)  -->
<svg version="1.1" xmlns="http://www.w3.org/2000/svg" xmlns:xlink="http://www.w3.org/1999/xlink" x="0px" y="0px"
	 viewBox="0 0 85 444.6" style="enable-background:new 0 0 85 444.6;" xml:space="preserve">
<style type="text/css">
	.st0{fill:#425FCF;}
</style>
<g id="BACKGROUND">
</g>
<g id="OBJECTS">
	<g>
		<g>
		</g>
	</g>
	<path class="st0" d="M85,64.7c-0.1-0.4-0.5-0.9-0.8-1.2c-0.6-0.7-1.5-0.8-2.4-0.8c-0.4,0-0.7,0-1.1,0c-0.3,0-0.6,0.1-0.9,0.2
		c-0.9,0.1-2-0.1-2.9,0c-0.4,0-0.7,0.2-1-0.1c-0.3-0.3-0.4-0.8-0.5-1.2c-0.2-1.1,0.2-2.1-0.1-3.2c-0.2-0.8-0.5-1.5-0.6-2.3
		c-0.1-0.2-0.5-0.6-0.7-0.8c0.1-0.4-0.1-0.6-0.3-0.9c-0.2-0.3-0.2-0.6-0.3-0.9c-0.2-1-0.5-2-0.9-3c-0.2-0.7-0.5-1.3-0.6-2
		c-0.2-1,0-1.9,0-2.9c0-1.1-0.1-2.1-1-2.8c-0.3-0.2-0.5-0.4-0.8-0.6c-0.2-0.2-0.3-0.4-0.5-0.5c-0.3-0.2-0.7-0.2-0.9-0.3
		c0,0.1,0,0.3-0.1,0.3c0,0-0.1,0.1-0.1,0.1c0,0.1-0.1,0.1-0.1,0.2c-0.1,0.1-0.1,0.1-0.2,0.2c0,0-0.1,0.1-0.1,0.1
		c-0.1,0.1-0.2,0.3-0.3,0.4c-0.1,0.1-0.1,0.2-0.3,0.3c-0.1,0-0.2,0.1-0.2,0.1c0,0,0,0,0,0c0,0.1-0.1,0.1-0.2,0.2
		c-0.1,0.1-0.3,0.2-0.4,0.3l-0.3,0.2c-0.3,0.2-0.6,0.4-1,0.6c-0.2,0.1-0.5,0.2-0.7,0.3c-0.2,0.1-0.4,0.2-0.6,0.3
		c-0.2,0.1-0.4,0.2-0.6,0.2c-0.1,0-0.2,0.1-0.4,0.1c-0.1,0.1-0.2,0.1-0.4,0.2c-0.2,0.1-0.4,0.2-0.7,0.3c-0.5,0.2-1,0.3-1.5,0.4
		c-0.2,0.1-0.4,0.1-0.7,0.1c-0.3,0-0.6,0.1-0.8,0.2c-0.2,0.1-0.3,0.2-0.5,0.5c-0.4,0.6-0.9,1.1-1.4,1.4c-0.1,0.1-0.3,0.1-0.4,0.1
		c-0.1,0-0.1,0-0.2,0c-0.3-0.1-0.4-0.3-0.5-0.5L56,47.9c0-0.1-0.1-0.1-0.1-0.2c-0.1,0-0.1-0.1-0.2-0.1c-0.1-0.1-0.2-0.2-0.3-0.3
		c-0.1-0.1-0.2-0.2-0.2-0.2c-0.1,0-0.2-0.1-0.2-0.1c-0.2,0-0.3-0.1-0.5-0.2c-0.1-0.1-0.2-0.2-0.3-0.3L54,46.5
		c-0.2-0.3-0.4-0.3-0.7-0.4c-0.1,0-0.3-0.1-0.4-0.2c-0.6-0.3-1.1-0.5-1.7-0.4c0,0-0.1,0-0.1,0c0,0.1,0,0.2,0,0.3
		c-0.1,0.5,0,1-0.1,1.5c-0.1,0.7-0.1,1.4-0.1,2.1c0,0.6,0.1,0.4,0,0.9c-0.2,0.9-0.5,1.8-0.7,2.7c-0.2,0.6-0.2,1.3-0.3,1.9
		c-0.1,0.9-0.2,1.9-0.4,2.8c-0.1,0.6-0.3,1.3-0.4,1.9c-0.1,1-0.1,2-0.2,3c0,0.5-0.1,0.9-0.3,1.3c-0.5,0.9-1.1,0.5-1.8,0.2
		c-0.2,0.3-0.4,0.3-0.6,0.6c-0.2,0.2-0.4,0.8-0.4,1.2c-0.1,0.7-0.1,1.4-0.1,2c0,0.4,0,0.8,0.3,1.1c0.2,0.3,0.4,0.1,0.7,0.1
		c0.5,0.1,0.4,0.5,0.4,1c0,0.5-0.3,0.9-0.3,1.4c0,0.4-0.1,0.7-0.1,1.1c0,0.7,0,1.5,0,2.2c0,0.7-0.1,1.4-0.1,2
		c-0.1,0.7-0.1,1.4-0.2,2.1c-0.1,1-0.5,2-0.4,3c0.1,0.5,0.2,1,0.3,1.4c0.2,0.7,0.8,1.2,1,1.9c0.4,1.7-0.8,3.7-0.6,5.4
		c0.1,0.4-0.1,0.8-0.3,1.2c-0.2,0.4-0.4,0.9-0.7,1.3c-0.3,0.3-0.4,0.7-0.7,1c-0.2,0.3-0.7,0.7-0.8,1c-0.2,0.6,0,1.3,0.4,1.7
		c0.5,0.4,1,1,1.1,1.7c0.2-0.1,0.4-0.1,0.5-0.1c0.1,0,0.2,0,0.2,0c0.2,0,0.5-0.1,0.7-0.2c0.3-0.1,0.6-0.2,0.9-0.3
		c0.5-0.1,0.9-0.2,1.4-0.5l0.1-0.1c0.2-0.1,0.4-0.3,0.8-0.2c0.2,0,0.3,0.1,0.5,0.2c0.1,0,0.2,0.1,0.3,0.1c0.2,0.1,0.5,0.2,0.7,0.3
		c0.4,0.2,0.7,0.3,1.1,0.4c0.6,0.1,1.3,0.3,1.9,0.2c0.4,0,0.8-0.2,1.2-0.5c0.2-0.1,0.4-0.2,0.6-0.2c0.1,0,0.2,0,0.3-0.1
		c0.1-0.1,0.3-0.2,0.5-0.3c0.1-0.1,0.2-0.1,0.3-0.2c0.1,0,0.2-0.1,0.2-0.2c0.2-0.1,0.3-0.2,0.5-0.3c0.2-0.1,0.5-0.1,0.7-0.1l0.1,0
		c0.7,0,1.1-0.1,1.5-0.5c0.2-0.3,0.4-0.6,0.5-1c0.1-0.2,0.1-0.3,0.2-0.5c0.1-0.3,0.2-0.8,0.2-1.2l0-0.1c0-0.4,0-0.9,0.3-1.3
		c0.4-0.6,1.1-0.9,1.9-0.8c0.2,0,0.4,0.1,0.5,0.1c0.1,0,0.2,0.1,0.3,0.1c0.3,0,0.5,0,0.8,0l0.2,0c0.2,0,0.4,0,0.5,0.1
		c0.1,0,0.2,0.1,0.3,0c0,0,0,0,0,0c0.1,0,0.2,0,0.3,0.1c0-0.3,0.1-0.5,0.2-0.8c0.1-0.4,0.2-0.8,0.4-1.1c0.1-0.3,0.3-0.6,0.4-0.8
		c0.2-0.4,0.7-0.6,1-1c0.3-0.4,0.5-0.8,0.6-1.3c0.1-0.6-0.1-0.8-0.5-1.2c-0.3-0.3-0.7-0.5-0.9-1c-0.1-0.3-0.5-1-0.5-1.3
		c0.1-0.8,1.5-1.3,2.1-1.6c0.9-0.5,1.7-0.9,2.5-1.5c0.4-0.3,0.9-0.4,1.3-0.7c0.3-0.2,0.6-0.5,1-0.6c0.6-0.2,1.2-0.3,1.9-0.5
		c0.6-0.2,1.1-0.4,1.7-0.5c1.1-0.3,1.9-0.6,2.5-1.5c0.3-0.5,0.3-0.8,0.4-1.3c0-0.6,0.2-1.2,0.2-1.8c0.1-0.9,0.2-1.9,0.6-2.8
		c0.3-0.8,0.9-1.6,1.4-2.4c0.3-0.4,0.7-0.8,1-1.2c0.2-0.3,0.4-0.5,0.6-0.7C84.9,65.8,85.1,65.1,85,64.7z"/>
	<g>
		<path class="st0" d="M41.1,235.7c0-0.9-0.5-1.7-0.7-2.5c-0.2-0.7,0-1.5,0-2.3c0-1.5,0-2.9,0-4.4c0-0.4,0-0.9,0-1.3
			c0-0.3-0.1-0.7-0.1-1c0,0,0,0,0,0c-0.2,0-0.5,0.1-0.7,0.1c-0.5,0.1-1,0.1-1.5,0.1l-0.3,0c-0.5,0-0.8,0-1.2,0.2
			c-0.2,0.1-0.4,0.3-0.5,0.4c-0.3,0.2-0.6,0.5-0.9,0.7c-0.3,0.2-0.5,0.4-0.7,0.7c-0.1,0.2-0.3,0.3-0.4,0.5c-0.4,0.5-0.9,0.4-1.2,0.4
			c-0.2,0-0.3,0-0.5,0c-0.1,0-0.1,0.1-0.2,0.2c-0.1,0.1-0.2,0.2-0.4,0.3c-0.2,0.1-0.4,0.1-0.6,0.1c-0.1,0-0.1,0-0.2,0
			c-0.2,0-0.4,0.1-0.6,0.1c-0.3,0.1-0.6,0.1-0.9,0.1c-0.2,0-0.3,0-0.5-0.1c-0.4-0.1-0.8-0.3-1.2-0.5c-0.1-0.1-0.3-0.1-0.4-0.2
			c-0.1,0-0.2-0.1-0.3-0.1c-0.4-0.2-0.8-0.4-1-0.7c-0.2-0.3-0.3-0.8-0.4-1.2c0-0.2-0.1-0.3-0.1-0.5c-0.2-0.8-0.6-1.6-0.9-2.4
			c-0.3-0.7-0.5-1.4-0.8-2.1c-0.1-0.2-0.1-0.3-0.1-0.5c-0.1-0.4-0.2-0.9-0.5-1.2c0,0,0,0,0,0c0,0,0,0,0,0c-0.2,0.7-0.4,1.3-0.6,2
			c-0.4,1.1-0.8,2.2-1.2,3.2c-0.5,1.4-0.8,2.8-1.4,4.2c-0.2,0.4-0.4,1-0.7,1.4c-0.2,0.3-0.4,0.8-0.8,0.9c-0.7,0.3-0.6-0.7-0.9-1
			c-0.2-0.2-0.7-0.3-0.9-0.5c-0.2-0.1-0.5-0.4-0.8-0.2c-0.3,0.2,0,0.5,0.1,0.8c0.1,0.4,0.1,0.8,0.3,1.2c0.2,0.5,0.3,1.3,0.1,1.8
			c-0.1,0.3-0.2,0.4-0.3,0.7c-0.1,0.4-0.2,0.8-0.2,1.3c0,0.4,0,0.8,0,1.1c0,0.1,0.1,0.5,0.1,0.5c0.1,0.2,0,0.1,0.2,0.3
			c0.2,0.2,0.5,0.4,0.7,0.6c0.4,0.4,0.4,0.6,0.6,1.2c0.2,0.8,0.4,1.5,0.6,2.3c0.2,0.6,0.3,1.1,0,1.6c-0.2,0.4-0.4,0.6-0.4,1.1
			c0,0,0,0.1,0,0.1c0.3-0.1,0.6-0.1,0.9,0c0.4,0,0.7,0.1,0.9-0.1l0-0.1c0,0,0-0.1,0-0.1c0-0.1,0.1-0.2,0.1-0.2
			c0-0.1,0.1-0.3,0.1-0.4c0-0.2,0.1-0.4,0.1-0.6c0-0.4,0.2-0.6,0.4-0.7c0.1-0.1,0.3-0.2,0.4-0.3c0.3-0.2,0.6-0.4,0.7-0.6
			c0-0.2,0-0.3,0-0.6c0-0.2,0-0.3,0-0.5c0-0.1,0-0.2,0-0.3c-0.1-0.1-0.1-0.1-0.1-0.2c-0.1-0.2-0.1-0.4-0.1-0.5l0-0.1
			c0-0.1,0-0.2,0-0.2c0-0.2-0.1-0.4,0-0.7c0.1-0.2,0.1-0.4,0.2-0.6c0.1-0.4,0.3-0.8,0.3-1.2c0-0.1,0-0.1,0-0.2c0-0.1,0-0.2,0-0.2
			c0-0.1,0-0.1,0.1-0.2c0,0,0-0.1,0-0.1c0-0.1-0.1-0.1-0.1-0.2c-0.1-0.1-0.1-0.2-0.1-0.2c-0.1-0.2,0-0.4,0.1-0.5
			c0.2-0.2,0.5-0.1,0.8-0.1c0.1,0,0.1,0,0.2,0h2.6c0.1,0,0.2,0,0.3,0c0.3,0,0.6,0,0.9,0c0.8,0.2,1.5,0.8,1.7,1.5
			c0,0.1,0.1,0.3,0.1,0.4c0.1,0.2,0.1,0.4,0.2,0.6c0.1,0.1,0.2,0.3,0.3,0.4c0.1,0.2,0.2,0.4,0.2,0.5c0.1,0.1,0.5,0.1,0.6,0.1
			c0.1,0,0.3,0,0.4,0l0.3,0.1c0.2,0,0.4,0.1,0.6,0.1l0.1,0c0.2,0,0.4,0.1,0.6,0.2c0.2,0.1,0.3,0.3,0.5,0.5c0.2,0.2,0.3,0.3,0.4,0.4
			c0.1,0,0.3,0,0.4,0c0,0,0.1,0,0.2-0.1c0.2-0.1,0.4-0.1,0.6-0.1c0.7,0.2,0.9,0.8,1,1.2c0,0.1,0.1,0.2,0.1,0.4
			c0,0.2,0.1,0.5,0.1,0.5c0.1,0.1,0.5-0.1,0.6-0.3l0.2-0.1c0.3-0.2,0.6-0.4,0.9-0.6c0,0,0.1-0.1,0.1-0.1c0.1-0.1,0.1-0.2,0.3-0.2
			c0.2-0.1,0.6-0.2,0.7-0.3c0.4-0.1,0.9-0.1,1.3-0.1l0.2,0c0.2,0,0.3,0,0.5,0.1c0.1,0,0.2,0,0.3,0.1l0.1,0c0.1,0,0.2,0,0.3,0
			c0.1,0,0.2,0.1,0.3,0.1c0.1,0,0.2,0.1,0.3,0.1c0-0.2,0-0.3,0-0.5C41.1,237.7,41.1,236.7,41.1,235.7z"/>
		<path class="st0" d="M24,218.1c0.3,0.4,0.5,1,0.6,1.4c0,0.2,0.1,0.3,0.1,0.5c0.2,0.7,0.5,1.4,0.8,2c0.3,0.8,0.6,1.6,0.9,2.5
			c0,0.2,0.1,0.3,0.1,0.5c0.1,0.4,0.2,0.8,0.3,1c0.1,0.2,0.4,0.3,0.7,0.4c0.1,0,0.2,0.1,0.3,0.1c0.1,0.1,0.3,0.1,0.4,0.2
			c0.3,0.2,0.7,0.4,1,0.4c0.4,0.1,0.7,0,1-0.1c0.2-0.1,0.4-0.1,0.7-0.1c0.1,0,0.2,0,0.3,0c0.1,0,0.2,0,0.2,0c0,0,0.1-0.1,0.1-0.1
			c0.1-0.1,0.3-0.3,0.5-0.3c0.3-0.1,0.5-0.1,0.7-0.1c0.3,0,0.4,0,0.6-0.2c0.1-0.1,0.3-0.3,0.4-0.4c0.2-0.3,0.5-0.6,0.9-0.9
			c0.3-0.2,0.6-0.4,0.8-0.6c0.2-0.1,0.4-0.3,0.6-0.4c0.6-0.4,1.1-0.4,1.6-0.4l0.3,0c0.5,0,0.9-0.1,1.3-0.1c0.2,0,0.5-0.1,0.7-0.1
			c0,0,0.1,0,0.1,0c0-0.2,0-0.4,0.1-0.5c0.1-0.2,0.3-0.3,0.4-0.4c0.4-0.4,0.7-0.8,0.8-1.3c-0.1-0.2-0.1-0.4-0.1-0.5
			c0-0.1,0-0.2,0-0.3c-0.3,0-0.6,0.1-0.9,0.1c-0.2,0.1-0.5,0.1-0.7,0.1c-0.1,0-0.3,0-0.4,0c-0.3,0-0.5,0-0.7,0.2
			c-0.7,0.5-1.1,0.4-1.8,0.2c-0.2-0.1-0.4-0.1-0.6-0.2c-0.5-0.1-1-0.2-1.5-0.5l-0.1-0.1c-0.2-0.1-0.4-0.2-0.5-0.4
			c-0.3-0.3-0.3-0.6-0.3-0.9c0-0.1,0-0.2,0-0.3c-0.1-0.2-0.4-0.3-1-0.2c-0.1,0-0.1,0-0.2,0.1c-0.1,0.1-0.1,0.1-0.2,0.2
			c-0.5,0.3-0.9,0-1.1-0.2l-0.2-0.1c-0.1-0.1-0.3-0.2-0.4-0.4l-0.1-0.1c-0.1-0.1-0.1-0.2-0.2-0.2l-0.1,0c-0.1,0-0.1,0-0.2,0.2l0,0.1
			c-0.1,0.2-0.2,0.4-0.6,0.4c-0.2,0-0.4,0-0.5-0.1l-0.3-0.1c-0.2,0-0.5-0.1-0.7-0.2c-0.2-0.2-0.4-0.4-0.5-0.6l-0.1-0.1
			c-0.2-0.3-0.3-0.4-0.7-0.6c-0.2-0.1-0.3-0.1-0.5-0.1c-0.2,0-0.4-0.1-0.6-0.1c-0.1,0-0.2-0.1-0.3-0.1c-0.1-0.1-0.2-0.1-0.3-0.1
			c-0.3-0.1-0.5-0.1-0.8-0.1c-0.1,0-0.1,0-0.2-0.1c0,0.4-0.1,0.7-0.2,1.1c-0.1,0.3-0.2,0.5-0.3,0.7C23.8,217.9,23.9,218,24,218.1z"
			/>
	</g>
	<path class="st0" d="M34.4,283.9C34.4,283.9,34.4,283.8,34.4,283.9L34.4,283.9z"/>
	<path class="st0" d="M40.4,239.7c0,0-0.1,0-0.2,0c0,0-0.1,0-0.1,0c-0.2,0-0.3,0-0.5-0.1c-0.1,0-0.2,0-0.4-0.1l-0.3,0
		c-0.4,0-0.8,0-1.1,0c-0.2,0-0.4,0.1-0.5,0.2c0,0-0.1,0.1-0.1,0.1c-0.1,0.1-0.2,0.2-0.3,0.3c-0.3,0.2-0.6,0.4-0.9,0.6l-0.2,0.1
		c-0.3,0.2-1,0.7-1.6,0.2c-0.2-0.2-0.3-0.6-0.4-0.9c0-0.1,0-0.2-0.1-0.3c-0.1-0.4-0.2-0.6-0.4-0.7c-0.1,0-0.1,0-0.2,0
		c-0.1,0-0.2,0.1-0.3,0.1c-0.2,0-0.5,0-0.6,0c-0.5-0.1-0.7-0.4-0.9-0.7c-0.1-0.1-0.2-0.2-0.3-0.3c-0.1,0-0.2-0.1-0.3-0.1l-0.1,0
		c-0.2,0-0.4-0.1-0.7-0.1l-0.3-0.1c-0.1,0-0.2,0-0.3,0c-0.4,0-1-0.1-1.2-0.6c0,0,0-0.1,0-0.1c0-0.1,0-0.2-0.1-0.3
		c-0.1-0.1-0.2-0.3-0.3-0.4c-0.1-0.3-0.2-0.5-0.3-0.8c0-0.1-0.1-0.2-0.1-0.3c-0.1-0.5-0.6-0.9-1.1-1c-0.2,0-0.4,0-0.7,0
		c-0.1,0-0.2,0-0.4,0h-2.6c-0.1,0-0.1,0-0.2,0c0,0.1,0,0.1,0.1,0.2c0,0.2,0,0.3-0.1,0.4c0,0,0,0.1,0,0.1c0,0.1,0,0.1,0,0.2
		c0,0.1,0,0.2,0,0.3c-0.1,0.4-0.2,0.8-0.4,1.2c-0.1,0.2-0.1,0.4-0.2,0.6c-0.1,0.2,0,0.2,0,0.4c0,0.1,0,0.2,0,0.3l0,0.1
		c0,0.1,0,0.2,0,0.2c0.1,0.1,0.1,0.2,0.2,0.3c0.1,0.2,0,0.4,0,0.5c0,0.1,0,0.2,0,0.3c0.1,0.3,0.1,0.6,0.1,0.8
		c-0.1,0.6-0.6,0.9-1,1.1c-0.1,0.1-0.2,0.1-0.3,0.2c-0.1,0.1-0.2,0.1-0.2,0.1c0,0.3,0,0.5-0.1,0.8c0,0.2-0.1,0.4-0.2,0.5
		c0,0.1-0.1,0.1-0.1,0.2l0,0.1c0,0.1-0.1,0.3-0.3,0.5c-0.4,0.3-0.9,0.2-1.3,0.2c-0.2,0-0.4,0-0.6,0c-0.1,0-0.1,0.1-0.2,0.1
		c0,0.1,0,0.1,0,0.2c0,0.4-0.1,0.9-0.1,1.2c0.3,0.1,0.6,0.8,0.7,1.1c0.1,0.2,0,0.4,0,0.7c0,0.2,0.1,0.4,0.2,0.6
		c0.1,0.5,0.1,1.1,0.3,1.6c0.1,0.3,0.2,0.5,0.3,0.8c0,0.2,0.1,0.4,0.1,0.6c0.2,0.7,0.7,1.3,1,2c0.3,0.7,0.2,1.2,0.1,1.8
		c0.1,0,0.2,0,0.3,0c0.4,0.2,0.9,0.3,1.1,0.1c0.2-0.1,0.3-0.4,0.3-0.7c0-0.1,0.1-0.2,0.1-0.3c0.1-0.4,0.4-0.6,0.6-0.7
		c0.3-0.3,0.5-0.4,0.8-0.4c0.4,0,0.6,0.3,0.6,0.8c0,0,0,0.1,0,0.1l0.1,0.7c0,0.2,0.1,0.4,0.2,0.4c0.1,0,0.3,0,0.4,0
		c0.2,0,0.4,0,0.6,0c0.1,0,0.2,0,0.3,0.1c0.1,0,0.2,0,0.2,0c0.1,0,0.1,0,0.2-0.1c0.1,0,0.2-0.1,0.3-0.1c0.3-0.1,0.5-0.1,0.8-0.1
		c0.3,0,0.6-0.1,0.9,0.1c0.1,0.1,0.2,0.2,0.3,0.2c0,0,0.1,0.1,0.1,0.1c0.2,0.1,0.4,0.1,0.6,0.1c0.2,0,0.4,0,0.6,0
		c0.1,0,0.2,0.1,0.4,0.1c0.4,0.1,0.8,0.2,1.2,0.1c0.3-0.1,0.4-0.2,0.6-0.4c0.1-0.1,0.2-0.2,0.3-0.4c0.7-0.8,1.7-0.3,2.3,0
		c0.1,0.1,0.3,0.1,0.4,0.2l0.1,0.1c0.2,0.1,0.4,0.1,0.6,0.4c0.1,0.1,0.2,0.1,0.2,0.2c0.1,0.1,0.1,0.1,0.2,0.2
		c0.1,0.1,0.2,0.2,0.2,0.3c0.1,0.1,0.1,0.2,0.2,0.2c0,0,0.1,0,0.1,0.1c0.1,0.1,0.2,0.1,0.3,0.2c0.3-0.3,0.6-0.5,0.9-0.9
		c0.4-0.7,0.5-1.3,0.4-2c-0.1-0.4-0.2-0.9-0.4-1.3c-0.2-0.5-0.4-0.9-0.4-1.5c0.1-0.6,0.4-1.2,0.7-1.7c0.3-0.6,1.2-1.2,1.8-1.2
		c0.3,0,0.6,0.2,0.9,0.2c0.2,0,0.4-0.1,0.5-0.1c0.4-0.1,0.4-0.2,0.7-0.5c0.5-0.4,0.7-0.7,0.9-1.3c0.1-0.3,0-0.6-0.1-0.9
		c-0.1-0.3-0.1-0.8-0.3-1c-0.1-0.2-0.4-0.4-0.6-0.6c-0.5-0.6-0.6-1.5-0.6-2.3c0-0.4,0-0.8-0.1-1.2c-0.2,0-0.4-0.1-0.6-0.1
		C40.5,239.7,40.4,239.7,40.4,239.7z"/>
	<path class="st0" d="M49.7,181.6c-0.1,0.1-0.2,0.2-0.4,0.3c-0.3,0.2-0.7,0.3-1.1,0.5l-0.2,0.1c-0.4,0.1-0.9,0.3-1.4,0.3
		c-0.5-0.1-1.1-0.4-1.5-0.7c-0.3-0.2-0.5-0.4-0.6-0.6c-0.1-0.2-0.3-0.3-0.4-0.4c-0.2-0.2-0.4-0.2-0.7-0.3c-0.6-0.2-0.8-0.1-1.2,0.3
		l-0.1,0.1c-0.3,0.3-0.5,0.4-0.9,0.4c0,0,0,0,0,0l-0.1,0c-0.2,0-0.2,0-0.3,0.1c-0.1,0.1-0.1,0.2-0.2,0.3c0,0.1-0.1,0.2-0.1,0.2
		l-0.1,0.2c-0.1,0.2-0.2,0.3-0.2,0.4c-0.1,0.4-0.2,0.9-0.2,1.4c-0.1,0.4-0.2,0.8-0.3,1.2c-0.1,0.3-0.2,0.5-0.3,0.8
		c-0.1,0.2-0.1,0.5-0.1,0.8l0,0.2c0,0.2,0,0.4,0,0.5c0,0.2,0,0.5,0,0.7c0,0.3-0.2,0.7-0.3,1c-0.2,0.4-0.6,0.5-0.9,0.5l-0.2,0
		c-0.3,0.1-0.7,0.1-0.9,0.3c-0.1,0-0.2,0.2-0.5,0.8c0,0.1,0,0.1-0.1,0.2c0,0,0,0.1,0,0.1c0.1,0.1,0.1,0.1,0.1,0.2
		c0.1,0.1,0.2,0.1,0.3,0.2c0.1,0,0.2,0.1,0.3,0.1c0.1,0.1,0.2,0.1,0.2,0.2c0.1,0.1,0.2,0.1,0.2,0.2c0.1,0,0.1,0,0.2,0.1
		c0.2,0.1,0.4,0.1,0.7,0.4c0.4,0.3,0.8,0.8,1.3,1c0.1,0,0.1,0,0.2,0c0.1,0,0.2-0.1,0.3-0.1c0.2,0,0.3,0,0.4,0c0.1,0,0.2,0,0.3,0
		c0,0,0.1,0,0.2-0.1c0.1,0,0.2-0.1,0.3-0.1c0.1,0,0.2,0,0.3-0.1c0,0,0.1,0,0.1,0c0,0,0.1,0,0.1,0c0.6-0.1,0.7-0.2,0.8-0.3
		c0-0.1,0-0.2,0-0.2c0-0.3,0-0.6,0.4-0.9c0.2-0.1,0.5-0.1,0.7-0.1c0.1,0,0.1,0,0.2,0c0.2,0,0.3-0.1,0.5-0.3l0.1-0.1
		c0.3-0.2,0.6-0.5,0.9-0.6c0,0,1.4-0.6,2-0.2c0.1,0,0.1,0.1,0.2,0.2c0,0,0.1,0.1,0.1,0.1c0.2,0.2,0.2,0.4,0.2,0.5
		c0,0.1,0,0.2-0.1,0.4c0,0.1,0,0.2,0,0.3v0.1c0,0.3,0,0.4,0.1,0.6c0.1,0.2,0.3,0.3,0.3,0.3c0,0,0.1,0,0.1,0c0.1,0,0.2-0.1,0.3-0.1
		c0.7-0.2,0.9,0.4,1,0.7c0,0.1,0,0.1,0.1,0.2c0.1,0.3,0.3,0.6,0.5,0.8c0.1,0.1,0.1,0.2,0.2,0.2c0.1,0.1,0.2,0.3,0.3,0.4
		c0.1,0.1,0.5,0.3,0.7,0.3c0.2,0,0.4,0,0.5-0.1c0,0,0.1,0,0.1-0.1c0.1-0.1,0.3-0.2,0.5-0.2c0.1-0.2,0.1-0.4,0.2-0.6
		c0.4-0.8,0.8-1.4,0.4-2.3c-0.2-0.5-0.7-0.6-0.7-1.2c0-0.4-0.1-0.6-0.2-1c-0.1-0.9,0.3-2,0.6-2.9c0.1-0.2,0.2-0.5,0.3-0.7
		c0-0.1,0.3-0.4,0.4-0.5c0.1-0.3,0.1-0.8,0-1.1c-0.2-0.6-0.6-1.7-1.3-1.8c-0.4-0.1-0.7,0-1.2-0.1c-0.3-0.1-0.4-0.4-0.6-0.7
		c-0.1-0.1-0.2-0.3-0.2-0.4c0,0-0.1,0.1-0.1,0.1C49.9,181.4,49.8,181.5,49.7,181.6z"/>
	<path class="st0" d="M34.4,283.9C34.4,283.9,34.4,283.9,34.4,283.9C34.4,283.9,34.4,283.9,34.4,283.9
		C34.4,283.9,34.4,283.9,34.4,283.9z"/>
	<path class="st0" d="M46.8,203.9l-0.1,0c-0.2,0-0.3,0-0.5,0.1l-0.1,0c-0.3,0.1-0.5,0.1-0.8,0.1c0,0-0.1,0-0.1,0
		c-0.4,0-0.6-0.2-0.8-0.4c-0.2-0.2-0.3-0.5-0.4-0.7c-0.1-0.1-0.1-0.2-0.2-0.3c-0.1-0.2-0.5-0.2-1-0.2c-0.3,0-0.3,0.1-0.6,0.2
		l-0.1,0.1c-0.2,0.1-0.6,0.3-1,0.2c-0.4-0.1-0.6-0.5-0.8-0.8c-0.1-0.1-0.1-0.3-0.2-0.3c-0.2-0.2-0.4-0.3-0.7-0.4
		c-0.1,0-0.2-0.1-0.3-0.1c-0.2-0.1-0.3-0.1-0.5-0.1c-0.2,0-0.3,0.2-0.5,0.6c-0.1,0.1-0.1,0.2-0.2,0.3c-0.2,0.4-0.6,0.4-0.8,0.3
		c-0.1,0-0.1,0-0.2,0c-0.1,0-0.2,0.1-0.4,0.2c-0.1,0-0.1,0.1-0.2,0.1c-0.3,0.2-0.6,0.2-0.8,0.3c-0.6,0.1-1.8,0.3-2.6-0.1
		c-0.4-0.2-0.6-0.5-0.8-0.8c-0.1-0.2-0.2-0.4-0.4-0.5l-0.2-0.1c-0.2-0.2-0.5-0.3-0.7-0.4c-0.1-0.1-0.1-0.1-0.2-0.1
		c-0.1,0-0.1,0-0.2,0c-0.5,0.7-0.9,1.5-1.3,2.3c-0.2,0.4-0.3,0.9-0.4,1.3c-0.2,0.4-0.4,0.8-0.6,1.2c-0.3,0.5-0.6,0.7-1,1.1
		c-0.6,0.8-0.6,1.9-0.9,2.8c-0.3,1-0.4,1.9-1,2.7c-0.2,0.3-0.4,0.7-0.6,1c-0.3,0.3-0.5,0.4-0.5,0.8c0,0.4,0.1,0.8,0.1,1.2
		c0.1,0,0.1-0.1,0.2-0.1c0.3,0,0.6,0.1,1,0.1c0.2,0,0.3,0.1,0.4,0.2c0.1,0,0.1,0.1,0.2,0.1c0.1,0.1,0.3,0.1,0.4,0.1
		c0.2,0,0.5,0.1,0.7,0.2c0.5,0.2,0.7,0.4,1,0.9l0.1,0.1c0.1,0.1,0.1,0.3,0.2,0.3c0.1,0.1,0.3,0.1,0.4,0.1l0.3,0.1c0.1,0,0.2,0,0.2,0
		c0,0,0.1,0,0.1-0.1l0.1-0.1c0.2-0.2,0.4-0.5,0.8-0.5c0.2,0,0.3,0,0.5,0.1l0.1,0c0.2,0.1,0.3,0.3,0.4,0.4l0.1,0.1
		c0.1,0.1,0.2,0.2,0.3,0.3c0.1,0,0.1,0.1,0.2,0.1C31.9,218,32,218,32,218c0.1-0.1,0.1-0.1,0.2-0.1c0.1-0.1,0.3-0.3,0.6-0.3
		c0.4,0,1.6-0.2,1.8,0.8c0,0.1,0,0.3,0.1,0.4c0,0.2,0,0.4,0.1,0.5c0.1,0.1,0.2,0.2,0.4,0.2l0.1,0.1c0.4,0.2,0.8,0.3,1.2,0.4
		c0.2,0.1,0.5,0.1,0.7,0.2c0.6,0.2,0.8,0.2,1.2-0.1c0.4-0.3,0.8-0.3,1.1-0.3c0.1,0,0.2,0,0.3,0c0.2,0,0.4-0.1,0.6-0.1
		c0.4-0.1,0.7-0.2,1.1-0.1c0.1,0,0.1,0,0.2,0c0,0,0-0.1,0-0.1c0-0.6,0.4-1.1,0.8-1.5c0.6-0.6,1.2-0.6,1.9-0.8
		c0.8-0.2,1.7-0.6,2.2-1.3c0.4-0.6,0.2-1,0.1-1.6c-0.1-0.5,0.2-1,0.3-1.5c0.1-0.6,0.2-1.1,0.1-1.7c0-0.6,0.4-1.3,0-1.8
		c-0.3-0.4-0.9-0.3-1.4-0.6c0,0.2-0.4-0.2-0.4,0c-0.2-0.5-0.9-1.9-0.2-2.2c0.7-0.3,2.1-0.6,2.1-1.5c0-0.4,0-0.7,0-1.1
		C47.2,203.9,47,203.9,46.8,203.9z"/>
	<path class="st0" d="M49.4,194.6c-0.1-0.1-0.1-0.1-0.2-0.2c-0.2-0.3-0.4-0.6-0.6-1c0-0.1-0.1-0.2-0.1-0.2c0-0.1-0.1-0.2-0.1-0.2
		c0,0-0.1,0.1-0.1,0.1c-0.1,0.1-0.3,0.2-0.6,0.1c-0.4-0.1-0.7-0.4-0.8-0.6c-0.3-0.3-0.3-0.7-0.2-1v-0.1c0-0.2,0-0.3,0.1-0.5
		c0-0.1,0-0.1,0-0.2c0,0-0.1,0-0.1-0.1c0,0-0.1-0.1-0.1-0.1c-0.3,0-1,0.2-1.2,0.3c-0.2,0.1-0.5,0.3-0.7,0.5l-0.1,0.1
		c-0.2,0.2-0.5,0.5-0.9,0.5c-0.1,0-0.2,0-0.3,0c-0.1,0-0.2,0-0.2,0c-0.1,0-0.1,0.1-0.1,0.3c0,0.1,0,0.3-0.1,0.5
		c-0.2,0.5-0.9,0.7-1.3,0.8c-0.1,0-0.2,0-0.3,0.1c-0.1,0-0.1,0-0.2,0c0,0-0.1,0-0.1,0.1c-0.1,0.1-0.2,0.1-0.4,0.2
		c-0.2,0-0.3,0-0.5,0c-0.1,0-0.2,0-0.3,0c-0.1,0-0.1,0-0.2,0c-0.2,0.1-0.4,0.1-0.7,0c-0.6-0.2-1.1-0.7-1.5-1.1
		c-0.1-0.1-0.2-0.1-0.4-0.2c-0.1,0-0.2-0.1-0.2-0.1c-0.2-0.1-0.3-0.2-0.4-0.2c-0.1,0-0.1-0.1-0.2-0.1c-0.1,0-0.1-0.1-0.2-0.1
		c-0.1,0-0.3-0.1-0.5-0.2c0,0-0.1-0.1-0.1-0.1c-0.2,0.2-0.5,0.3-0.9,0.3c-0.3,0-0.7-0.1-1.2-0.2c0,0,0,0-0.1,0c-0.3,0-0.7,0-0.8-0.3
		c-0.2,0.4-0.4,0.7-0.6,1c-0.5,0.5-1.3,1.1-1.3,1.9c0,0.5,0.1,0.5,0.4,0.8c0.2,0.2,0.4,0.6,0.5,1c0,0.4-0.3,1-0.4,1.4
		c-0.2,0.6-0.4,1.1-0.6,1.7c-0.1,0.4,0,0.6,0,1c0.2,0,0.3,0.1,0.4,0.1c0.3,0.1,0.5,0.3,0.8,0.5l0.2,0.1c0.3,0.2,0.5,0.5,0.6,0.7
		c0.1,0.2,0.3,0.4,0.4,0.5c0.5,0.2,1.5,0.2,2.2,0c0.2-0.1,0.4-0.1,0.7-0.2c0.1,0,0.1-0.1,0.2-0.1c0.2-0.1,0.4-0.2,0.6-0.3
		c0.2,0,0.3,0,0.4,0c0,0,0.1,0,0.1,0c0-0.1,0.1-0.1,0.1-0.2c0.2-0.4,0.5-1,1.1-1c0,0,0,0,0,0c0.2,0,0.5,0.1,0.7,0.2
		c0.1,0,0.1,0.1,0.2,0.1c0.4,0.1,0.7,0.3,1,0.6c0.1,0.1,0.2,0.3,0.3,0.5c0.1,0.2,0.2,0.4,0.4,0.5c0.1,0,0.2,0,0.4-0.1l0.1-0.1
		c0.3-0.1,0.5-0.3,0.9-0.3c0.5,0,1.3,0,1.7,0.6c0.1,0.1,0.1,0.2,0.2,0.4c0.1,0.2,0.2,0.4,0.3,0.5c0.2,0.2,0.2,0.2,0.4,0.2
		c0.3,0,0.4,0,0.7-0.1l0.1,0c0.2-0.1,0.4-0.1,0.7-0.1c0.1,0,0.1,0,0.2,0c0,0,0,0,0,0c0.1-0.1,0.3-0.2,0.4-0.1l0.1,0
		c0-0.3,0.1-0.7,0.2-1c0.1-0.5,0.1-0.8,0.3-1.2c0.3-0.5,0.5-1,0.7-1.5c0.2-0.7,0.3-1.4,0.5-2.1c0.1-0.4,0.1-0.7,0.3-1
		c0.4-0.4,0.5-0.5,1-0.7c0.1,0,0.2,0,0.2-0.1c-0.3-0.1-0.7-0.3-0.9-0.5C49.6,195,49.5,194.8,49.4,194.6z"/>
	<path class="st0" d="M53.2,45.3c0.1,0.1,0.3,0.1,0.4,0.1c0.3,0.1,0.6,0.2,1,0.6c0,0,0.1,0.1,0.1,0.1c0.1,0.1,0.1,0.1,0.1,0.2
		c0.1,0,0.2,0.1,0.3,0.1c0.1,0,0.3,0.1,0.4,0.1c0.2,0.1,0.3,0.2,0.4,0.3C56,46.9,56,47,56.1,47c0.1,0,0.1,0.1,0.1,0.1
		c0.2,0.1,0.2,0.2,0.4,0.4l0.1,0.1c0,0,0.1,0.1,0.1,0.2c0.5-0.3,0.9-0.9,1.2-1.2c0.2-0.2,0.4-0.5,0.8-0.7c0.3-0.2,0.7-0.2,1-0.2
		c0.2,0,0.4,0,0.6-0.1c0.5-0.1,1-0.3,1.5-0.4c0.2-0.1,0.3-0.1,0.5-0.2c0.1-0.1,0.3-0.2,0.4-0.2c0.1-0.1,0.3-0.1,0.4-0.2
		c0.2-0.1,0.3-0.1,0.5-0.2c0.2-0.1,0.4-0.2,0.6-0.3c0.2-0.1,0.4-0.2,0.7-0.3c0.3-0.2,0.6-0.4,0.9-0.6l0.3-0.2
		c0.1-0.1,0.2-0.2,0.3-0.3c0,0,0-0.1,0.1-0.1c0.1-0.1,0.1-0.2,0.2-0.2c0.1-0.1,0.2-0.1,0.3-0.1c0,0,0,0,0-0.1
		c0.1-0.2,0.3-0.3,0.4-0.5c0.1-0.1,0.1-0.1,0.2-0.2c0,0,0.1-0.1,0.1-0.1c0,0,0.1-0.1,0.1-0.1c0.1-0.1,0.1-0.2,0.2-0.3
		c0.1-0.1,0.2-0.1,0.3-0.1c-0.1-0.4,0.2-1.1,0.3-1.4c0.2-0.5,0.4-1,0.3-1.5c-0.1-0.9-1.4-0.6-2.1-1c-1.5-1,1.3-2.7,0.4-4
		c-0.2-0.3-0.5-0.4-0.7-0.6c-0.3-0.3-0.5-0.6-0.7-0.9c-0.2-0.3-0.3-0.6-0.4-1c-0.2-0.7-0.2-1.3,0.4-1.7c0.8-0.5,2.9-0.3,2.2-1.8
		c-0.1-0.2-0.2-0.5-0.4-0.7c-0.1-0.1-0.3-0.2-0.4-0.4c-0.4-0.6,0.3-1.1,0.7-1.5c0.4-0.4,1.2-1,1.2-1.5c0-0.4-0.4-0.9-0.7-1.1
		c-0.5-0.4-0.9-0.8-1.3-1.3c-0.2-0.3-0.4-0.7-0.6-1c-0.5-0.6-1.3-0.8-1.8-1.4c0,0,0,0,0,0c-0.1,0.1-0.2,0.3-0.3,0.3
		c-0.1,0-0.3,0.1-0.4,0.2c-0.1,0-0.1,0.1-0.2,0.1c-0.3,0.2-0.7,0.3-1,0.4c-0.1,0-0.2,0.1-0.3,0.1c-0.6,0.2-1,0.1-1.5,0
		c-0.1,0-0.2,0-0.3-0.1c-0.2,0-0.4-0.1-0.6-0.1c-0.2,0-0.5,0-0.7-0.1c-0.3-0.1-0.6-0.1-0.9-0.1c-0.5,0-1,0-1.4-0.1
		c-0.5,0-0.9-0.1-1.4-0.1c-0.2,0-0.4,0-0.7,0c-0.4,0-0.8,0-1.1,0c-0.2,0-0.4,0.1-0.6,0.1c-0.1,0-0.2,0.1-0.3,0.1
		c-0.2,0.1-0.4,0.1-0.6,0.1c-0.1,0-0.3,0-0.4,0c-0.1,0-0.1,0-0.2,0.1c-0.1,0-0.1,0.1-0.2,0.1c-0.2,0.1-0.4,0.1-0.6,0.1l-0.2,0
		c-0.4,0-0.7,0.2-1,0.4c0,0-0.1,0.1-0.2,0.1c-0.1,0.1-0.4,0.2-0.5,0.3c0,0.2-0.2,0.3-0.3,0.3c0.1,0.7,0.3,1.4,0.5,2
		c0.3,0.8,0.5,1.8,0.6,2.7c0,0.4,0,0.8,0,1.3c0,0.5,0.2,1.1,0.3,1.6c0.2,1,0.3,1.8,0.3,2.8c0,0.6,0.1,1.3,0,1.9
		c-0.1,0.5-0.2,1-0.2,1.5c0,0.5,0,0.8-0.1,1.3c-0.1,0.5-0.2,1.1-0.2,1.6c0,0.5-0.1,0.9-0.1,1.4c0,0.8-0.2,1.5-0.3,2.2
		c-0.1,0.8,0.2,1.3,0.5,2c0.2,0.5,0.4,0.8,0.7,1.2c0.2,0.2,0.2,0.4,0.3,0.6c0,0.1,0,0.1,0,0.1c0,0,0.1,0,0.1,0
		C51.9,44.8,52.5,45,53.2,45.3z"/>
	<path class="st0" d="M33.1,271.1c-0.1,0.2-0.2,0.3-0.3,0.5c0,0-0.1,0.1-0.1,0.2c-0.1,0.2-0.3,0.4-0.5,0.6c-0.4,0.2-0.8,0.3-1.3,0.3
		l-0.2,0c-0.2,0-0.3,0-0.5,0c-0.1,0-0.1,0-0.2,0.2c0,0.1-0.1,0.1-0.1,0.2c-0.4,0.5-0.8,1-1.5,1.2c-0.5,0.2-0.9,0.1-1.3,0l-0.2-0.1
		c-0.2,0-0.4,0-0.7,0c-0.2,0-0.5,0.1-0.7,0.1c-0.3,0-0.5-0.2-0.7-0.3c-0.2-0.2-0.4-0.3-0.6-0.4c-0.9-0.5-1.8-0.8-2.5-0.7
		c-0.3,0-0.7,0.1-1,0.2c-0.1,0-0.2,0.1-0.3,0.2c-0.1,0.1-0.2,0.1-0.4,0.2c-0.4,0.2-0.9,0.2-1.3,0.2c-0.2,0-0.4,0-0.6,0.1
		c-0.3,0.1-0.7,0-1,0c-0.3,0-0.5,0-0.7,0c-0.1,0-0.2,0-0.3,0c-0.3,0-0.5,0-0.8,0.1c-0.1,0-0.3,0.1-0.4,0.2c-0.1,0.1-0.2,0.1-0.3,0.2
		c0,0-0.1,0-0.1,0c0,0.2,0.1,0.3,0.2,0.5c0.2,0.4,0.3,0.8,0.3,1.2c0,0.2,0,0.4,0,0.6c0,0.2,0.2,0.4,0.3,0.5c0.3,0.4,0.7,0.7,1,1.1
		c0.3,0.4,0.6,1,0.8,1.5c0.1,0.2,0.1,0.5,0.1,0.7c0.1,0.3,0.3,0.6,0.3,0.9c0.1,0.5,0,0.8,0,1.3c-0.1,0.4,0,0.8-0.4,1.1
		c-0.3,0.3-0.9,0.3-1.3,0.1c-0.3-0.1-0.6-0.5-0.8-0.7c0,0.1-0.2-0.5-0.3-0.5c-0.6-0.4-0.5,0.4-0.5,0.7c0.1,0.5,0.1,1,0.1,1.5
		c0,0.5,0,0.9,0,1.4c0,0.7-0.2,1.3-0.2,2c0,0.7-0.1,1.4-0.1,2.1c0,0.7-0.1,1.3,0,2c0.1,0.6,0.1,1.2,0,1.8c-0.1,0.7-0.1,1.4-0.2,2
		c-0.1,0.5-0.5,0.9-0.8,1.3c-0.2,0.4-0.4,0.7-0.6,1.1c-0.2,0.4-0.3,0.9,0,1.3c0.1,0.1,0.2,0.1,0.3,0.2c0.1,0.1,0.1,0.3,0.2,0.4
		c0.4,0.3,1.1,0.1,1.6,0.3c0.4,0.2,0.6,0.8,1,1.1c0.3,0.2,0.6,0.4,0.9,0.6c0.5,0.4,1.1,0.6,1.8,0.5c0.5-0.1,1.1-0.5,1.1-1
		c0-0.4-0.3-0.9-0.6-1.2c-0.7-0.8-1.3-2.2-0.5-3.2c0.5-0.6,2.1-0.7,1.8-1.7c-0.1-0.4-0.4-0.5-0.6-0.9c-0.1-0.3-0.1-0.6-0.3-0.9
		c-0.2-0.3-0.9-0.8-0.7-1.3c0.1-0.3,0.7-0.4,0.9-0.6c0.4-0.2,0.4-0.3,0.2-0.7c-0.2-0.4-0.9-0.6-0.9-1.1c-0.1-0.4,0.2-0.7,0.4-1
		c0.3-0.3,0.3-0.6,0.5-0.9c0.2-0.3,0.6-0.3,0.8-0.6c0.3-0.3,0.5-1.2,0.5-1.7c0-0.4-0.2-0.7-0.5-0.9c-0.2-0.2-0.5-0.3-0.7-0.5
		c-0.2-0.2-0.3-0.9-0.3-0.9c-0.1-0.9-0.1-1.6,0.6-2.3c0.4,0.4,1.3,0,1.7,0c0.5,0,1.1,0,1.4-0.5c0.3-0.4,0.1-1.2,0.3-1.6
		c0.1-0.3,0.2-0.6,0.4-0.9c0-0.3,0.1-0.4,0.4-0.6c0.4-0.1,0.7,0.4,0.9,0.6c0.3,0.2,0.6,0.3,0.8,0.5c0.4,0.3,1,1,1.2,1.4
		c0.1,0.3,0,0.8-0.1,1.1c-0.1,0.2-0.2,0.3-0.4,0.5c-0.1,0.2-0.2,0.5-0.2,0.8c-0.1,0.3-0.3,0.9-0.1,1.3c0.3,0.9,1.3,0,1.8,0
		c0.2,0.3,0,0.6-0.1,0.8c0,0.2,0,0.5,0,0.7c0,0.5,0.1,1.2,0,1.7c-0.2,0.1-0.4-0.2-0.6-0.3c-0.2-0.1-0.2-0.2-0.4-0.3
		c-0.4-0.3-0.8-0.4-1,0.2c-0.2,0.6-0.1,1.2-0.1,1.9c0,0.4,0.1,1.1,0,1.6c-0.2,0-0.5-0.1-0.7,0c-0.3,0.1-0.4,0.5-0.4,0.8
		c-0.2,0.8-0.3,1.8,0,2.6c0.1,0.3,0.2,0.5,0.5,0.6c0.2,0.1,0.5,0,0.8,0c0.3,0.1,0.8,0.3,0.9,0.6c0.1,0.4-0.2,0.6-0.4,0.9
		c-0.1,0.2-0.3,0.3-0.4,0.5c-0.2,0.1-0.4,0.1-0.6,0c-0.3,0.1-0.4,0.4-0.5,0.7c-0.3,0.6,0.1,1.4,0,2.1c-0.1,0.6-0.5,0.6-0.9,1
		c-0.2,0.2-0.5,0.6-0.6,0.9c-0.3,0.7,0.5,2.5,0.7,3.1c0.1,0,0.1,0,0.2,0c0-0.1-0.1-0.1-0.1-0.2c0-0.2,0.2-0.4,0.4-0.4
		c0.2,0,0.4,0,0.6-0.1c0.3-0.1,0.6-0.2,1-0.1l0.2,0c0.1,0,0.3,0,0.4,0.1c0,0,0.1,0,0.1,0c0.1,0,0.3,0,0.5,0c0.3,0.1,0.5,0.4,0.5,0.6
		c0,0.1,0.1,0.2,0.1,0.2c0.2,0.3,0.6,0.6,0.8,0.4c0.1-0.1,0.2-0.1,0.3-0.2c0.2-0.1,0.3-0.3,0.5-0.3c0.4-0.2,1-0.1,1.4,0.2
		c0.2,0.2,0.3,0.4,0.4,0.6c0,0.1,0.1,0.2,0.1,0.3c0.1,0.3,0.3,0.5,0.5,0.7l0.2,0.3c0.1,0.2,0.3,0.3,0.5,0.4l0.1,0
		c0.1,0.1,0.2,0.1,0.3,0.2c0.2,0.1,0.2,0.2,0.4,0.2c0.3,0.1,0.6,0.2,0.9,0.3l0.1,0.1c0.2,0.1,0.4,0.2,0.5,0.4
		c0.1,0.1,0.1,0.1,0.2,0.2c0.2,0.1,0.4,0.1,0.7,0.1l0,0c0-0.6-0.3-1.1-0.4-1.6c0-0.3,0.1-0.7,0.2-1c0.1-0.4,0.1-0.6,0.1-1
		c0-0.3,0-0.6-0.1-0.9c-0.1-0.2-0.3-0.4-0.4-0.7c-0.1-0.2-0.2-0.5-0.3-0.6c-0.1-0.1-0.5-0.2-0.6-0.4c-0.1-0.1-0.1-0.8,0-0.9
		c0-0.1,0.2-0.2,0.3-0.3c0.5-0.6,0.8-1.3,0.7-2.1c-0.1-0.4-0.1-1.8-0.7-1.6c-0.5,0.2-0.7,1.1-1.4,1.1c-0.5-0.1-0.7-0.8-0.7-1.2
		c0-0.8-0.3-1.5-0.6-2.3c-0.2-0.4-0.5-0.9-0.3-1.3c0.1-0.3,0.5-0.4,0.6-0.6c0.1-0.2,0.1-0.6,0.1-0.8c0.1-0.3,0.1-0.7,0.2-1
		c0.1-0.9,0-1.7-0.2-2.5c-0.1-0.2-0.1-0.5-0.3-0.7c-0.1-0.1-0.4-0.4-0.4-0.5c0-0.2,0-0.4,0.1-0.6c0.2-0.7,0.6-0.2,1.1,0
		c0.5,0.2,1.4,0.3,1.7-0.2c0.5-0.7-0.2-1.8-0.3-2.5c0-0.1-0.1-0.5,0.2-0.4c0,0,0.1,0,0.1,0c-0.2-1.2-0.7-2.3-0.7-3.5
		c0-0.6,0.1-1.1,0.1-1.7c0.1-0.5,0-1,0-1.5c0-0.9-0.2-1.8-0.3-2.7c0-0.6,0-1.2-0.1-1.8c-0.1-0.4,0-0.9,0-1.3c0-0.3,0-0.6,0-0.9
		c0,0.1-0.1,0.2-0.2,0.3C33.1,270.9,33.1,271,33.1,271.1z"/>
	<path class="st0" d="M36.2,256.5c0,0-0.1-0.1-0.1-0.1c-0.1-0.1-0.2-0.2-0.3-0.4c0-0.1-0.1-0.1-0.2-0.2c-0.1-0.1-0.1-0.1-0.2-0.2
		c-0.1-0.1-0.2-0.2-0.3-0.3c-0.1-0.1-0.2-0.1-0.3-0.2l-0.2-0.1c-0.1-0.1-0.3-0.1-0.5-0.2c-0.7-0.3-1.1-0.5-1.4-0.2
		c-0.1,0.1-0.2,0.2-0.2,0.3c-0.2,0.3-0.5,0.6-1,0.7c-0.5,0.1-1,0-1.5-0.1c-0.1,0-0.2-0.1-0.3-0.1c-0.1,0-0.3,0-0.4,0
		c-0.3,0-0.7,0-1.1-0.3c-0.1,0-0.1-0.1-0.2-0.2c0,0-0.1-0.1-0.1-0.1c-0.1-0.1-0.3,0-0.5,0c-0.3,0-0.6,0.1-0.8,0.1
		c-0.1,0-0.1,0-0.2,0.1c-0.1,0-0.3,0.1-0.4,0.1c-0.2,0-0.4,0-0.5-0.1c-0.1,0-0.1,0-0.2,0c-0.1,0-0.3,0-0.4,0c-0.2,0-0.4,0-0.6,0
		c-0.2,0-0.7-0.2-0.8-1l-0.1-0.7c0-0.1,0-0.1,0-0.2c0,0-0.1,0.1-0.1,0.1c-0.2,0.2-0.3,0.3-0.4,0.4c0,0.1-0.1,0.2-0.1,0.2
		c-0.1,0.4-0.3,0.8-0.6,1.1c-0.5,0.4-1.3,0.2-1.8-0.1c0,0-0.1-0.1-0.1-0.1c-0.2,0.6-0.4,1.2-0.5,1.8c-0.2,0.7-0.7,1.3-0.9,1.9
		c-0.1,0.2-0.1,0.5-0.2,0.8c-0.1,0.3-0.2,0.5-0.4,0.7c-0.2,0.5-0.4,1-0.6,1.4c-0.4,0.8-0.7,1.6-1.1,2.4c-0.2,0.3-0.3,0.4-0.4,0.8
		c-0.1,0.5,0.1,1,0.1,1.5c0,0.3,0.1,0.4,0,0.7c-0.1,0.4-0.5,0.7-0.6,1.1c-0.1,0.6,0.2,1.1,0.1,1.6c-0.1,0.7-0.5,1.2-0.8,1.8
		c-0.3,0.6-0.6,1.2-0.7,1.8c0.2-0.1,0.3-0.2,0.6-0.3c0.3-0.1,0.6-0.1,0.9-0.1c0.1,0,0.2,0,0.3,0c0.3,0,0.6,0,0.8,0
		c0.3,0,0.6,0,0.9,0c0.2,0,0.5-0.1,0.7-0.1c0.4,0,0.7,0,1.1-0.2c0.1,0,0.2-0.1,0.3-0.1c0.1-0.1,0.2-0.1,0.4-0.2
		c0.4-0.1,0.8-0.2,1.2-0.3c1.1,0,2.3,0.5,2.9,0.8c0.2,0.1,0.4,0.2,0.6,0.4c0.2,0.2,0.3,0.2,0.4,0.2c0.2,0,0.4,0,0.6,0
		c0.3,0,0.6-0.1,0.9,0l0.3,0.1c0.4,0.1,0.6,0.1,0.9,0c0.5-0.2,0.8-0.5,1.1-1c0-0.1,0.1-0.1,0.1-0.1c0.1-0.2,0.3-0.4,0.7-0.5
		c0.2,0,0.4,0,0.6,0l0.2,0c0.3,0,0.6-0.1,0.9-0.2c0.1-0.1,0.2-0.2,0.3-0.4c0-0.1,0.1-0.1,0.1-0.2c0.1-0.1,0.2-0.2,0.2-0.4
		c0.1-0.1,0.1-0.2,0.2-0.3c0.1-0.2,0.2-0.4,0.2-0.8c0-0.2,0.2-0.4,0.4-0.4c0,0,0,0,0,0c0.1,0,0.2,0,0.3,0.1c0,0,0-0.1,0-0.1
		c0.1-0.6,0.4-1,0.7-1.4c0.2-0.4,0.8-0.9,0.9-1.3c0.1-0.6-0.5-1.2-0.7-1.8c-0.2-0.6,0.1-1.1,0.5-1.5c0.6-0.5,1.1-0.5,0.7-1.4
		c-0.3-0.8-0.9-1.7-0.8-2.6c0-0.4,0.1-0.9,0.5-1c0.2-0.1,0.5,0,0.7-0.2c0.2-0.2,0.3-0.8,0.4-1c0-0.1,0-0.2,0-0.3
		c0-0.1-0.1-0.1-0.1-0.2C36.2,256.5,36.2,256.5,36.2,256.5z"/>
	<path class="st0" d="M49.3,19.3l0.1-0.1c0.5-0.3,0.9-0.5,1.4-0.5l0.2,0c0.1,0,0.3,0,0.4-0.1c0,0,0.1,0,0.1-0.1
		c0.1-0.1,0.2-0.1,0.4-0.2c0.2,0,0.4,0,0.5,0c0.2,0,0.3,0,0.4,0c0.1,0,0.2-0.1,0.3-0.1c0.2-0.1,0.5-0.2,0.8-0.2c0.4,0,0.8,0,1.2,0
		c0.2,0,0.4,0,0.6,0c0.5,0,1,0,1.5,0.1c0.5,0,0.9,0.1,1.4,0.1c0.3,0,0.6,0,1,0.1c0.2,0,0.4,0.1,0.7,0.1c0.2,0,0.5,0,0.7,0.1
		c0.1,0,0.2,0,0.3,0.1c0.4,0.1,0.7,0.2,1.1,0c0.1,0,0.2-0.1,0.3-0.1c0.3-0.1,0.6-0.2,0.8-0.3c0.1,0,0.1-0.1,0.2-0.1
		c0.2-0.1,0.4-0.2,0.6-0.3c0.1,0,0.1-0.1,0.2-0.1c-0.1-0.1-0.1-0.2-0.2-0.4c-0.1-0.4-0.1-0.7-0.1-1c-0.1-0.6-0.3-1.2-0.4-1.8
		c-0.1-1-0.3-1.8-0.7-2.6c-0.2-0.5-0.5-0.9-0.6-1.4c-0.1-0.5-0.3-0.9-0.4-1.4c-0.1-0.6,0.1-1.2,0.4-1.7c0.2-0.4,0.6-0.9,0.5-1.3
		c-0.2-1.2-2-0.8-2.7-1.3c-0.3-0.2-0.6-1.1-0.6-1.4c-0.2-0.7,0.3-1.5,0-2.1c-0.2-0.5-1-1.5-1.6-0.8C58,0.3,58.1,0.6,58,0.8
		c-0.1,0.1-0.3,0.4-0.4,0.4c-0.6,0.3-1.2-0.6-1.7-0.7c-0.7-0.2-1.4,0.1-1.6,0.8c-0.1,0.5,0,0.9,0.1,1.4c0,0.3,0,0.5,0.1,0.8
		c0.1,0.4,0.2,0.6,0.2,1c0,0.3,0,0.6,0,0.9c0,0.5-0.2,0.9-0.4,1.4c-0.2,0.3-0.3,0.7-0.4,1c-0.3,0.6-0.9,0.9-1.5,1.2
		c-1,0.5-2,0.6-3.1,0.4c-0.3-0.1-0.8-0.1-1.1-0.2c-0.3-0.1-0.4-0.4-0.7-0.4c0,0.3,0.3,0.5,0.3,0.8c0,0.2,0,0.5,0,0.8
		c0,0.4,0.3,0.7,0.4,1c0.1,0.2,0.1,0.6,0.1,0.8c0.1,0.7,0.2,1.5,0.2,2.3c0,0.8,0.3,1.6,0.3,2.4c0,0.9,0,1.9,0.1,2.8
		C48.9,19.5,49.1,19.4,49.3,19.3z"/>
	<path class="st0" d="M51.7,143c-0.1,0-0.1,0-0.2,0c-0.2,0-0.3,0-0.4-0.1l-0.1,0c0,0-0.1,0-0.2,0c-0.1,0-0.2,0-0.4,0
		c-0.1,0-0.2-0.1-0.3-0.1c0,0-0.1,0-0.1,0c-0.3-0.1-0.6-0.2-0.9-0.3c-0.2,0-0.4-0.1-0.5-0.1c-0.2,0-0.3-0.1-0.5-0.1
		c-0.3,0-0.6-0.1-1-0.3c-0.4-0.2-0.7-0.6-0.9-1c-0.1-0.2-0.3-0.4-0.4-0.5c-0.4-0.4-0.4-0.9-0.4-1.3l0-0.2c0-0.3,0-0.6,0.1-0.8
		c0.1-0.5,0.1-0.9,0.1-1.4c-0.1-0.5-0.5-1.1-1.1-1.6c-0.4-0.4-0.6-0.3-0.8-0.1l-0.1,0.1c-0.2,0.1-0.3,0.3-0.5,0.4
		c-0.2,0.1-0.4,0.2-0.6,0.2c-0.1,0-0.1,0-0.2,0.1c-0.6,0.2-0.9,1.3-0.9,2.3c0,0.1,0,0.1,0,0.2c0,0.2,0,0.8-0.6,0.9
		c-0.7,0.1-1.5-0.6-1.7-1c-0.1-0.2-0.2-0.4-0.3-0.6c-0.1-0.3-0.2-0.6-0.5-0.7c-0.1-0.1-0.3-0.1-0.5-0.2c-0.2,0-0.3-0.1-0.5-0.2
		c0,0.3,0.1,0.5,0.1,0.8c0,0.3-0.1,0.8,0,1.1c0.1,0.4,0.4,1,0.7,1.3c0.2,0.3,0.5,0.4,0.7,0.7c0.2,0.4,0.3,0.8,0.2,1.2
		c-0.1,0.4-0.4,0.4-0.6,0.7c-0.2,0.4-0.2,1-0.4,1.4c-0.2,0.5-0.4,0.7-0.7,1.1c-0.2,0.3-0.4,0.7-0.5,1.1c0,0.3-0.1,0.5-0.2,0.8
		c-0.2,0.6-0.9,1.3-1.5,1.5c-0.4,0.1-1.1-0.1-1.3,0.4c-0.3,0.6,0.5,1.5,0.5,2c0,0.6-0.3,1.1-0.3,1.7c0,0.4,0.1,0.8,0.1,1.2
		c0,0.7,0,1.3,0.1,2c0,0.3,0,0.8,0.1,1.1c0.2,0.4,0.5,0.5,0.5,1c0.1,0.4,0.1,0.8,0.1,1.1c0,0.5,0,0.9-0.1,1.4
		c-0.1,0.5,0.1,0.6,0.2,1c0.2,0.6,0.1,1.4,0.2,2c0.1,0.7,0.3,1.8,0.4,2.5c0.2,0.9,0.3,1.7,0.3,2.6c0,0.5-0.1,1.2,0.1,1.7
		c0.1,0.2,0.2,0.3,0.3,0.5c0.1,0.3,0.2,0.6,0.3,0.9c0.2-0.1,0.4,0,0.5,0.2c0.2,0.2,1.4,0,1.6-0.2c0.1-0.1,0.2-0.3,0.3-0.6
		c0.1-0.2,0.2-0.4,0.3-0.5c0.1-0.1,0.2-0.3,0.3-0.4c0,0,0.1-0.1,0.1-0.1c0.1-0.1,0.2-0.3,0.4-0.4c0.3-0.4,0.6-0.8,1.1-1
		c0.1-0.1,0.2-0.1,0.3-0.1c0.1,0,0.2-0.1,0.3-0.2c0.3-0.2,0.6-0.4,1.1-0.2c0.3,0.1,0.6,0.3,0.9,0.5c0.2,0.2,0.4,0.4,0.5,0.6
		c0,0,0,0,0,0.1c0,0.1,0.1,0.1,0.1,0.2c0.1,0.1,0.2,0,0.5,0c0.3-0.1,0.6-0.2,0.9,0c0.5,0.2,0.8,0.7,1,1.1c0,0.1,0.1,0.2,0.1,0.3
		c0.1,0.2,0.3,0.3,0.3,0.2c0-0.1,0.1-0.2,0.2-0.3c0.3-0.4,2.2-1,1.4-1.9c-0.2-0.2-0.5-0.3-0.7-0.4c-0.3-0.2-0.4-0.6-0.6-0.9
		c-0.1-0.1-0.2-1.3-0.4-1.4c-0.3-0.5-0.8-1.2-0.9-1.8c0-0.4,0-0.9,0-1.3c0-0.4,0-0.7-0.2-1.1c-0.2-0.5-0.6-0.9-0.9-1.4
		c-0.5-1.1,0.7-1.2,1.4-1.7c0.6-0.5,0.8-1.4,1-2.1c0.1-0.3,0.2-0.7,0.2-1.1c0-0.5-0.3-0.8-0.4-1.3c-0.2-0.8-0.3-1.6,0.4-2.2
		c1.3-1,5.1-1,4.6-3.3c-0.1-0.6-0.5-0.8-0.9-1.3c-0.3-0.3-0.3-0.9-0.2-1.3c0.2-0.8,1-1.3,1-2.2c0-0.3,0-0.6-0.1-0.9c0,0-0.1,0-0.1,0
		C52,143,51.9,143,51.7,143z"/>
	<path class="st0" d="M66.6,92.5c-0.2,0-0.4,0-0.5-0.1c-0.1,0-0.3,0-0.3,0l-0.2,0c-0.3,0-0.6,0-0.8,0c-0.2,0-0.4-0.1-0.6-0.1
		c-0.1,0-0.2-0.1-0.3-0.1c-0.6-0.1-1,0.1-1.3,0.5c-0.2,0.3-0.2,0.5-0.2,0.9l0,0.1c0,0.4-0.1,1.1-0.3,1.6c-0.1,0.1-0.1,0.3-0.2,0.5
		c-0.2,0.4-0.3,0.9-0.7,1.2c-0.6,0.7-1.3,0.7-2,0.7l-0.2,0c-0.2,0-0.3,0-0.4,0c-0.1,0-0.2,0.1-0.4,0.2C58.1,97.9,58,98,57.9,98
		c-0.1,0-0.2,0.1-0.3,0.2c-0.2,0.1-0.4,0.2-0.6,0.3c-0.1,0-0.2,0.1-0.3,0.1c-0.2,0-0.3,0.1-0.4,0.2c-0.5,0.3-1,0.5-1.6,0.6
		c-0.6,0-1.4-0.1-2-0.2c-0.5-0.1-0.9-0.3-1.3-0.4c-0.2-0.1-0.5-0.2-0.7-0.3c-0.1,0-0.2-0.1-0.4-0.2c-0.1-0.1-0.3-0.1-0.4-0.2
		c-0.1,0-0.1,0-0.2,0.1l-0.1,0.1c-0.6,0.4-1.1,0.5-1.7,0.6c-0.2,0-0.5,0.1-0.7,0.2c-0.3,0.1-0.6,0.2-0.9,0.3c-0.1,0-0.2,0-0.3,0
		c-0.2,0-0.3,0-0.4,0.1c-0.1,0-0.1,0.1-0.2,0.1c0,0,0,0,0,0c-0.1,0.4-0.4,0.8-0.5,1.2c-0.1,0.4-0.4,0.8-0.5,1.2
		c-0.1,0.5,0,1.1,0,1.6c0,0.7-0.2,1.5-0.3,2.2c-0.1,0.6-0.3,1.2-0.4,1.7c-0.1,0.3-0.1,0.6-0.3,0.8c-0.2,0.3-0.5,0.5-0.7,0.7
		c-0.4,0.4-0.5,0.9-0.6,1.4c-0.1,0.3-0.2,0.5-0.2,0.8c0,0.2,0.1,0.5,0.1,0.8c0,0.2,0,0.5,0,0.7c0.2,0.8,0.2,1.5,0.2,2.3
		c0,0.7,0,1.5-0.2,2.3c-0.1,0.4-0.3,1-0.7,1.2c-0.3,0.1-0.4,0-0.6,0.3c-0.2,0.3-0.3,0.6-0.4,0.9c0,0.3-0.1,0.7-0.1,1
		c-0.1,0.2-0.1,0.4-0.2,0.6c-0.1,0.4-0.1,0.7-0.2,1.1c-0.2,0.8-0.3,1.6-0.3,2.4c0,0.4,0,0.9,0,1.4c0,0.3,0.1,0.6-0.1,0.9
		c-0.2,0.4-0.9,0.6-1.2,0.9c-0.3,0.2-0.7,0.3-0.9,0.5c0,0.1-0.4,0.1-0.4,0.2c0,0.8,0,1.5-0.4,2.2c-0.2,0.4-0.4,0.7-0.5,1.1
		c-0.2,0.7,0.4,1.1,0.6,1.7c0.3,0.7,0.6,1.3,0.7,2c0.1-0.1,0.3-0.1,0.4-0.1c0.1,0.1,0.3,0.1,0.4,0.1c0.2,0.1,0.5,0.1,0.7,0.3
		c0.4,0.3,0.6,0.7,0.7,1.1c0.1,0.2,0.1,0.4,0.2,0.5c0.2,0.3,0.7,0.7,1,0.6c0,0,0,0,0,0c0,0,0-0.1,0-0.1c0-0.1,0-0.2,0-0.2
		c0-0.6,0.2-2.5,1.4-2.9c0.1,0,0.2-0.1,0.2-0.1c0.1,0,0.3-0.1,0.4-0.2c0.2-0.1,0.3-0.2,0.5-0.4l0.1-0.1c0.6-0.4,1.1-0.4,1.8,0.2
		c0.4,0.3,1.2,1.2,1.3,2.1c0.1,0.5,0,1-0.1,1.5c0,0.3-0.1,0.5-0.1,0.8l0,0.2c0,0.4,0,0.6,0.2,0.8c0.2,0.2,0.3,0.4,0.4,0.6
		c0.2,0.3,0.4,0.6,0.7,0.8c0.2,0.1,0.4,0.1,0.7,0.2c0.2,0,0.4,0,0.6,0.1c0.2,0.1,0.3,0.1,0.5,0.1c0.3,0.1,0.7,0.2,1,0.3
		c0.1,0,0.1,0.1,0.1,0.1c0.1,0,0.1,0.1,0.1,0.1c0,0,0.1,0,0.2,0c0.1,0,0.3,0,0.4,0l0.1,0c0.1,0,0.1,0,0.2,0c0,0,0.1,0,0.1,0
		c0.1,0,0.2,0,0.3,0c-0.2-0.9-0.7-1.8-1-2.7c-0.2-0.5-0.3-1.3,0-1.9c0.3-0.6,1-0.9,1.6-1.1c0.5-0.2,1-0.7,1.2-1.1
		c0.4-0.7,0.3-1.4,0.3-2.2c0-0.9-0.1-1.8,0.1-2.7c0.2-1,0.6-1.8,1.2-2.6c0.2-0.3,0.5-0.6,0.8-0.9c0.3-0.4,0.5-0.8,0.7-1.2
		c0.4-0.6,0.8-1.3,1.2-1.9c0.4-0.6,0.6-1.3,0.8-2c0.5-1.8,2.4-3,3.7-4.2c0.3-0.3,0.7-0.7,0.8-1.2c0.1-0.3,0-0.7,0-1
		c0-0.7-0.2-1.2,0-1.9c0.2-0.6,0.5-1.3,1.2-1.3c0.3,0,0.6,0.1,0.9,0.1c0.4,0.1,0.9-0.1,1.3,0c0.2,0.1,0.4,0.4,0.6,0.4
		c0.1,0,0.6-0.3,0.8-0.4c0.3-0.1,0.5-0.4,0.8-0.5c0.4-0.2,0.7-0.3,0.8-0.8c0.2-0.6,0.2-1.5,0.1-2.1c-0.1-0.4-0.3-0.6-0.6-0.8
		c-0.3-0.2-0.6-0.4-0.8-0.7c-0.4-0.5-0.6-1.2-0.8-1.9c-0.2-0.5-0.5-1-0.5-1.5c0-0.2,0-0.4-0.1-0.6c-0.1-0.4-0.2-1,0.1-1.3
		c0.2-0.2,0.5-0.3,0.7-0.4c0.1-0.1,0.1-0.1,0.2-0.2c0.1,0,0.1,0,0.2,0c0.2-0.1,0.3-0.3,0.5-0.4c0.1-0.1,0.3-0.1,0.4-0.2
		c0.2-0.2,0-0.7,0-1C69.1,99.8,69,99.4,69,99c0-0.7-0.2-1.3-0.4-1.9c-0.3-0.7-0.7-1.3-1-2c-0.2-0.4-1.2-2.2-0.6-2.6
		c0.1,0.1,0-0.1-0.1-0.2C66.8,92.4,66.7,92.5,66.6,92.5z"/>
	<path class="st0" d="M46.4,170.9c-0.1-0.1-0.1-0.2-0.2-0.4c-0.2-0.3-0.3-0.6-0.6-0.8c-0.1,0-0.3,0-0.5,0.1
		c-0.3,0.1-0.9,0.2-1.3-0.2c0,0-0.1-0.1-0.1-0.1c0-0.1,0-0.1-0.1-0.2c-0.1-0.2-0.3-0.3-0.4-0.4c-0.2-0.2-0.4-0.3-0.7-0.4
		c-0.2-0.1-0.2-0.1-0.5,0.1c-0.2,0.1-0.3,0.2-0.5,0.3c-0.1,0-0.1,0.1-0.2,0.1c-0.3,0.2-0.6,0.5-0.8,0.8c-0.1,0.2-0.3,0.3-0.4,0.5
		c-0.1,0.1-0.1,0.1-0.2,0.2c-0.1,0.1-0.2,0.2-0.2,0.3c-0.1,0.1-0.2,0.3-0.2,0.4c-0.1,0.3-0.3,0.6-0.5,0.8c-0.3,0.3-1.1,0.5-1.7,0.5
		c-0.1,0-0.2,0-0.3,0c-0.1,0-0.2-0.1-0.4-0.1c0,0,0,0.1,0,0.1c0.1,0.3,0.2,0.5,0.3,0.7c0.1,0.6-0.3,1.3-0.4,1.8
		c-0.1,0.3-0.2,0.6-0.4,0.9c-0.2,0.2-0.3,0.3-0.3,0.6c-0.1,0.5,0,1.1,0,1.7c0,0.7,0.1,1.5,0,2.2c-0.9,0.3-1.1-1.7-2.1-1.4
		c-0.1,0.1,0,0.3,0.1,0.4c0.1,0.3,0.1,0.6,0.1,0.9c0.1,0.7-0.1,1.5-0.1,2.2c-0.1,1.1-0.2,2.1,0,3.1c0.2,0.7,0.3,1.3,0.3,2
		c0,0.9-0.6,1.9-0.9,2.7c-0.1,0.2-0.2,0.4-0.3,0.6c0.1,0,0.2,0,0.3,0.1c0,0.1,0.1,0.1,0.1,0.2c0,0,0.1,0,0.1,0c0.1,0,0.2,0,0.3,0
		c0.6,0.2,1.3,0.3,1.5,0c0-0.1,0.1-0.1,0.1-0.3c0-0.1,0.1-0.2,0.1-0.4c0.3-0.6,0.5-1,0.8-1.1c0.4-0.2,0.8-0.3,1.2-0.4l0.2,0
		c0.3,0,0.4-0.1,0.4-0.2c0.1-0.2,0.2-0.5,0.2-0.7c0-0.2,0-0.4,0-0.6c0-0.2,0-0.4,0-0.6l0-0.2c0-0.3,0.1-0.6,0.1-0.8
		c0.1-0.3,0.2-0.6,0.3-0.9c0.1-0.3,0.2-0.6,0.3-1c0.1-0.5,0.1-1.1,0.3-1.5c0.1-0.3,0.2-0.5,0.3-0.7l0.1-0.1c0-0.1,0.1-0.1,0.1-0.2
		c0.1-0.1,0.2-0.3,0.3-0.4c0.3-0.3,0.6-0.3,0.8-0.3l0.1,0c0.2,0,0.2,0,0.4-0.2l0.1-0.1c0.6-0.6,1.1-0.7,1.9-0.5
		c0.3,0.1,0.7,0.2,1,0.4c0.2,0.2,0.4,0.3,0.5,0.5c0.2,0.2,0.3,0.4,0.5,0.5c0.4,0.3,0.8,0.6,1.2,0.6c0.3,0,0.7-0.1,1-0.2l0.2-0.1
		c0.4-0.1,0.7-0.3,1-0.4c0.1,0,0.1-0.1,0.2-0.1c0-0.2,0-0.4,0.2-0.4c0.2,0,0.4,0,0.5,0c0,0,0,0,0,0c-0.1-0.5-0.1-1.1-0.1-1.7
		c0-0.7,0.1-1.6-0.1-2.3c-0.2-0.6-0.8-1.2-0.6-1.9c0.2-0.8,0.1-1.7-0.6-2.3c-0.3-0.3-0.8-0.7-1.1-1.2c0,0,0,0,0,0
		C47,171.5,46.6,171.3,46.4,170.9z"/>
	<g>
		<path class="st0" d="M68.1,437.5c-0.2-0.1-0.5-0.2-0.7-0.3c-0.4-0.2-0.8-0.4-1.2-0.5c-0.4-0.1-0.7-0.2-1.1-0.3
			c-0.4-0.1-0.9-0.3-1.3-0.3c-0.7,0-1.3,0.4-2,0.3c-0.5,0-1,0-1.4-0.1c-0.4-0.1-1.4-1.6-1.9-1.6v-25.4c-0.4,0-0.5-0.3-0.7-0.6
			c-0.2-0.4-0.1-0.3-0.6-0.2c-0.5,0.1-0.8,0.1-1.2,0.4c-0.4,0.3-1.1,0.5-1.6,0.4c-0.5-0.1-0.3-0.9-0.3-1.4c0-0.6,0.1-1.1-0.6-1.2
			c-0.5-0.1-1.3,0.2-1.6-0.4c-0.2-0.4,0.2-1.1,0.5-1.4c0.3-0.3,0.8-0.4,1.1-0.6c0.4-0.2,0.8-0.4,1.2-0.6c-0.1-0.3-0.8-0.7-1.2-0.9
			c-0.5-0.2-1.1-0.3-1.6-0.5c-0.5-0.2-0.7-0.4-1.1-0.7c-0.5-0.4-0.9-0.4-1.5-0.6c-0.6-0.1-1,0-1.6,0.2c-0.6,0.2-1.1,0.2-1.7,0.2
			c-1.3-0.1-2.5-0.7-3.4-1.7c0,0,0,0,0,0c0,0,0,0,0,0c-0.1-0.1-0.1-0.1-0.2-0.2c0,0,0,0.1,0.1,0.1c-0.2,0-0.4,0-0.6,0
			c-0.5,0-1-0.1-1.5-0.2c-0.9,0-1.7,0.1-2.6,0.2c-0.8,0-1.5-0.2-2.2-0.2c-0.6,0-1.1,0.3-1.7,0.4c-0.3,0.1-0.7,0.4-0.8-0.1
			c0-0.2,0.1-0.4,0.2-0.6c0-0.2,0-0.5,0-0.8c0-0.3-0.1-0.5-0.3-0.7c-0.3-0.5-0.7-1-1-1.6c-0.4-0.7-0.8-1.4-0.9-2.1
			c-0.1-0.4-0.2-0.9,0-1.2c0.4,0.4-0.3-0.6,0.2-0.7c0,0,0.1,0,0.1,0c0.2-0.6,0.2-1.3,0.1-1.9c-0.2-0.6-0.3-1.2-0.2-1.9
			c0.1-0.5,0.3-1.1,0-1.6c-0.1-0.1-0.1-0.1-0.2-0.3c0-0.1,0-0.3,0-0.4c-0.3-0.8-1.1-1-1.9-1c-0.7,0-1,0.3-1.6,0.7
			c-0.6,0.4-1.2,0.8-1.8,1.3c-0.3,0.2-0.3,0.2-0.5-0.1c-0.1-0.1-0.2-0.3-0.3-0.4c-0.2-0.3-0.3-0.8-0.3-1.1c0-0.4,0-0.7,0-1.1
			c0-0.4-0.3-0.7-0.4-1c-0.2-0.4-0.3-0.8-0.4-1.2c-0.1-0.4-0.1-0.9-0.3-1.2c-0.4-1.1-1.3-2.3-1.3-3.5c0-0.7,0.1-1.5,0-2.2
			c0-0.5-0.1-1-0.1-1.5c0-1.1-0.8-1.9,0.4-2.6c0.4-0.2,0.9-0.2,1.3-0.2c0.3,0,0.4-0.1,0.5-0.3c0.2-0.4,0.1-0.8,0.2-1.2
			c0-0.1,0.1-0.2,0.2-0.4c-0.2,0-0.3,0-0.5-0.1c0,0-0.1,0-0.2,0c-0.1,0-0.1,0-0.2,0l-1.1-0.3c-0.3-0.1-0.5-0.2-0.8-0.2
			c-0.5-0.1-0.9-0.5-1.3-0.8l-0.2-0.1c0,0-0.1-0.1-0.2-0.1c-0.1-0.1-0.2-0.1-0.2-0.2c-0.1-0.1-0.3-0.3-0.4-0.4
			c-0.1-0.1-0.2-0.2-0.3-0.3l-0.1-0.1c-0.1-0.1-0.2-0.2-0.3-0.3c-0.2-0.2-0.2-0.3-0.3-0.5c0,0,0-0.1-0.1-0.2
			c-0.1-0.1-0.2-0.3-0.3-0.4c-0.1-0.1-0.1-0.1-0.2-0.2c-0.1-0.2-0.3-0.3-0.4-0.3c-0.2-0.1-0.6-0.1-0.9,0l-0.8-0.1h0
			c0.1,0.1,0,0.2,0,0.4c-0.2,0.6-0.2,1.2-0.4,1.8c-0.2,1-0.3,1.9-0.3,2.9c0,0.5,0,1.1,0,1.6c0,0.3-0.1,0.7-0.2,1c0,0.1,0,0.3,0,0.4
			c0.1,0.2,0.2,0.2,0.4,0.1c0.4,0,0.7-0.1,1.1,0c0.1,0.4-1,2.3-0.3,2.3c0,0.1-0.2,0.3-0.3,0.4c-0.3,0.5,0.2,0.7,0.2,1.2
			c0,0.2-0.1,0.4-0.1,0.7c0,0.2,0,0.3-0.1,0.6c-0.2,0.5-0.4,1-0.7,1.5c-0.3,0.3-1,0.9-0.7,1.4c0.2,0.3,0.6,0.6,0.9,0.8
			c0.3,0.3,0.6,0.6,1,0.9c0.2,0.2,0.7,0.5,0.8,0.8c0.1,0.4-0.4,0.5-0.7,0.5c-0.5,0-1.1-0.1-1.6-0.2c-0.3,0-0.7-0.2-0.9,0.1
			c0.1,0.5,0.1,1.1,0.2,1.6c0.1,0.3,0.2,0.6,0.3,1c0.1,0.2,0.1,0.5,0.3,0.7c0.2,0.2,0.5,0.1,0.7,0c0.2,0.2-0.2,1-0.3,1.2
			c-0.4,0.4-0.7-0.3-0.9-0.5c-0.2-0.4-0.5-0.2-0.8,0c-0.5,0.3-0.8,0.5-1.2,0.9c-0.3,0.3-0.9,0.6-1.1,0.9c0.1,0.4,0.4,0.6,0.7,0.9
			c0.3,0.3,0.5,0.6,0.8,0.8c0.3,0.3,0.6,0.4,0.8,0.8c0.1,0.3,0.2,0.5,0.4,0.7c0.2,0.2,0.5,0.4,0.6,0.7c0.3,0.4,0.4,0.8,0.5,1.3
			c0,0.2,0,0.6,0.2,0.7c0.3-0.3,0.3-0.9,0.7-1.1c0.2-0.1,0.3,0,0.5-0.1c0.3-0.1,0.5-0.3,0.9-0.3c0.5,0.1,0.4,0.4,0.7,0.6
			c0.2,0.2,0.6,0.1,0.8,0.3c0.3,0.2,0.2,0.4,0.1,0.8c-0.1,0.5-0.3,0.8-0.6,1.2c-0.2,0.3-1,1.1-0.8,1.5c0.5,0.1,0.9-0.1,1.4,0.1
			c0.5,0.2,0.6,0.5,0.9,0.9c0.4,0.7,0.8,1.3,1,2c0.1,0.2,0.1,0.6,0.3,0.8c0.2,0.2,0.8,0.1,1.1,0.2c0.3,0.1,0.6,0.2,0.9,0.3
			c0.3,0.1,0.6,0.1,0.8,0.3c0.2,0.1,0.3,0.4,0.5,0.5c0.4,0.2,0.9-0.3,1.2-0.5c0.4-0.2,0.9-0.2,1.2-0.6c0.3-0.4,0.1-0.7,0.3-1.1
			c0.2-0.3,0.9-0.8,1.1-1c0.4-0.3,1-0.6,1.3-0.1c0.4,0.6-0.2,2.3-1,1.6c0,0-1.4,1.3-1.5,1.3c-0.3,0.2-0.7,0.3-1,0.5
			c-0.4,0.3-0.9,0.5-1.3,0.7c-0.3,0.2-0.4,0.3-0.8,0.4c-0.6,0.1-1.1-0.3-1.6-0.7c-0.3-0.2-0.4-0.6-0.8-0.6c-0.3,0-0.8,0.1-1.1,0.3
			c-0.5,0.3-0.8,0.8-0.8,1.4c0,0.2-0.1,1,0.1,1.1c0.2,0.2,0.7,0,1,0c0.3,0,0.6,0,0.8,0.2c0.5,0.4,0.5,1.2,0.7,1.8
			c0.2,0.6,0.9,0.2,1.4,0.2c0.3,0,0.5,0.1,0.9,0.2c0.6,0.1,0.8-0.3,1.1-0.7c0.3-0.3,1.2-1.2,1.6-0.8c0.1,0.1,0.2,0.6,0.2,0.8
			c0,0.2-0.1,0.4-0.3,0.5c-0.2,0.2-0.2,0.2-0.6,0.2c0,0-0.3,0.1-0.4,0.2c-0.2,0.2-0.4,0.8-0.7,0.8c-0.4,0-0.5-0.9-0.7-0.2
			c-0.1,0.4,0,0.7-0.1,1c-0.1,0-0.1,0.1-0.2,0.1c0,0,0,0.1,0,0.1c-0.2,0.6-0.1,1.3-0.3,1.9c-0.2,0.6-0.3,1.2-0.2,1.9
			c0,0.3,0,0.5,0.3,0.6c0.1,0,0.7,0,0.8,0c0.2-0.1,0.4-0.1,0.7-0.2c0.3-0.1,0.5-0.3,0.9-0.3c0.3,0.1,0.4,0.2,0.7,0.3
			c1.1,0.2,1.9-0.3,2.8-0.9c0.7-0.5,1.6-0.7,2.3-0.2c0.4,0.3,1,0.8,1.5,0.8c0.1-0.1,0.2-0.2,0.4-0.2c0.2-0.1,0.5-0.2,0.7-0.3
			c0.4-0.2,0.8-0.3,1.2-0.5c0.9-0.4,1.3-0.9,1.9-1.6c0.4-0.5,1.4-1.7,2-0.5c0.4,0.8-0.5,1.4-1,1.9c-0.6,0.5-1.2,1-2,1.2
			c-0.4,0.1-0.7,0-1.1,0.1c-0.5,0.1-0.8,0.4-1.1,0.8c-0.3,0.4-0.9,1.3-1.6,1.4c-0.9,0.1-0.7-0.8-1.1-1.2c-0.3-0.3-0.8-0.3-1.2-0.2
			c-0.5,0-0.4,0.2-0.8,0.5c-0.1,0.1-0.4,0.3-0.6,0.4c-0.3,0.2-0.4,0.1-0.7,0c-0.4-0.2-0.5-0.5-1-0.5c-0.7-0.1-1.4,0-2.1,0
			c-0.9,0-1.9,0-2.3,1c-0.4,1.1,1.5,0.7,2,0.8c0.4,0.1,0.6,0.3,1,0.4c0.3,0,0.6,0,0.8,0c0.5,0,0.8,0,1.2-0.2
			c0.3-0.1,0.4-0.3,0.7-0.1c0.3,0.2,0.5,0.8,0.6,1.1c0.3,0.6,1,1.6,1.8,1.5c0.4,0,0.7-0.2,1-0.4c0.3-0.1,0.6-0.1,0.9-0.1
			c0.4,0,0.9-0.1,1.3,0.1c0.5,0.1,0.6,0.3,1,0.8c0.5,0.7,0.9,1.5,1.8,1.8c0.3,0.1,0.7,0.2,1.1,0.3c1.1,0.1,2.1-0.3,2.3-1.5
			c0.1-0.8-0.1-1.7,0.3-2.5c0.2-0.5,0.5-0.9,0.7-1.4c0.3-0.8,0.3-1.6,0.1-2.4c-0.1-0.7-0.4-1.4-0.7-2.1c-0.1-0.4-0.1-0.7,0-1.1
			c0.2-0.9,1.2-1,1.9-1.4c0.7-0.3,1.2-1.1,1.8-1.6c0.5-0.5,1-1.1,1.7-1.5c0.4-0.2,0.8-0.3,1.2-0.3c0.4,0,1.1-0.2,1.5,0.1
			c0.4,0.2,0.9,0.6,0.9,1.1c0,0.2-0.1,0.5-0.1,0.7c-0.2,0.9-1.1,1.1-1.9,0.7c-0.4-0.2-0.9-0.7-1.4-0.6c-0.1,0-0.5,0.1-0.5,0.3
			c-0.2,0.5,1.2,1.7,0.4,2.2c-0.5,0.3-1.3-1.3-1.5-0.2c-0.1,0.7,0.6,1,1,1.5c0.5,0.6,0.3,1.2-0.5,1.4c-0.6,0.2-1.2,0.2-1.5,0.8
			c-0.3,0.6-0.1,1.5,0,2.1c0.1,0.6,0.1,1.2,0.3,1.8c0.2,0.8,0.9,0.5,1.5,0.3c1.1-0.3,2.1-1,3.1-1.5c0.8-0.4,2.1-1.6,3-0.6
			c0.4,0.4,0.3,1.3,0.2,1.8c-0.1,0.4-0.3,0.7-0.5,1c-0.2,0.2-0.3,0.2-0.5,0.3c-0.3,0.1-0.6,0.3-0.9,0.4c-0.6,0.3-1.3,0.3-1.8,0.7
			c-0.5,0.4-1.1,0.6-1.7,0.8c-0.3,0.1-0.6,0.1-0.8,0.4c-0.5,0.6,0,1.9,0.2,2.5c0.2,0.6,0.4,1,0.8,1.4c0.6,0.5,1.2,1.1,2,1.5
			c0.9,0.5,2.1,0.5,3.2,0.6c0.4,0.1,1.6,0,1.8,0.3c0.1,0.2,0,0.6-0.1,0.7c-0.3,0.5-0.8,0.4-1.3,0.2c-0.9-0.4-1.8-0.4-2.7-0.7
			c-0.6-0.2-1.4-1-2.1-0.6c-0.5,0.3-0.2,0.9-0.8,1c-0.6,0.1-1,0.2-1.6,0c-0.3-0.1-0.5-0.4-0.8-0.6c-0.3-0.2-0.5-0.2-0.8-0.3
			c-0.7-0.2-1.3-0.6-1.8-1c-0.4-0.3-0.6-0.6-1.1-0.6c-0.1,0.2,0.3,0.7,0.4,0.8c0.2,0.4,0.5,0.6,0.9,0.7c0.3,0.1,0.6,0.2,0.8,0.5
			c0.1,0.4-0.1,0.7-0.2,1c-0.1,0.3-0.1,0.5-0.4,0.7c-0.3,0.1-0.7,0.1-0.9,0c-0.5-0.2-0.5-0.5-1.1-0.4c-0.8,0.1-1.7,0.2-2.5,0.3
			c-0.3,0-0.5,0.1-0.8,0.2c-0.3,0.1-1,0.4-1.2,0.6c-0.1,0.2-0.2,0.8-0.1,1c0.1,0.7,1.4,0.6,1.9,0.6c0.4,0,0.7,0.2,1.1,0.3
			c0.4,0.1,0.9,0.1,1.3,0.1c0.7,0,1.3,0.3,2,0.4c0.7,0.1,1.6,0.1,2.2,0.5c0.6,0.4,0.7,1,1.5,0.9c0.3,0,0.4-0.1,0.7-0.1
			c0.3,0.1,0.5,0.1,0.7,0c0.2,0,0.4-0.2,0.5-0.3c0.2-0.1,0.3-0.3,0.5-0.4c0.2-0.1,0.7,0,0.9,0.1c0.1,0.1,0.1,0.1,0.1,0.3
			c0,0.1-0.2,0.3-0.3,0.4c-0.3,0.4-0.4,0.9-0.6,1.4c-0.2,0.4-0.4,0.8-0.5,1.2c-0.1,0.4-0.1,0.8-0.1,1.2c0,0.6,0.1,0.8,0.4,1.4
			c0.3,0.6,0.4,1.2,0.8,1.8c0.3,0.4,0.7,0.8,1.1,1.1c0.4,0.3,1.3,0.6,1.8,0.4c0.6-0.3-0.4-1.3-0.6-1.7c-0.1-0.4,0-0.5,0.1-0.9
			c0.1-0.3,0.1-0.7,0.4-0.9c0.3-0.1,0.6,0,0.9,0.1c0.3,0.1,0.6,0.3,0.9,0.3c0.6,0,1.1-0.4,1.7-0.5c0.8,0,1.2,0.7,1.6,1.3
			c0.5,0.7,0.8,1.5,1.3,2.2c0.3,0.5,0.8,0.8,1.1,1.2c0.2,0.3,0.4,0.5,0.8,0.6c0.4,0,0.7-0.2,0.8-0.6c0.1-0.3,0-0.6-0.1-0.9
			c-0.1-0.3-0.4-0.6-0.5-1c-0.1-0.4-0.3-0.8-0.5-1.2c-0.4-0.9-1.3-1.5-2-2.2c-0.2-0.2-0.8-0.8-0.7-1.1c0.1-0.3,0.5-0.3,0.7-0.4
			c0.4-0.1,0.6-0.2,1,0c0.3,0.2,0.5,0.5,0.8,0.7c0.4,0.3,0.6,0.7,1.1,0.9c0.2,0.1,0.4,0.1,0.6,0.2c0.3,0.1,0.5,0.4,0.7,0.6
			c0.5,0.4,1,0.4,1.6,0.1c0.4-0.2,0.9-0.6,1.4-0.6c0.4,0,0.8,0,1.2,0.2c0.4,0.2,1.3,0.9,1.8,0.9c0.6-0.1,0.6-0.8,0.6-1.3
			C68.8,438.4,68.6,437.7,68.1,437.5z"/>
		<path class="st0" d="M43.3,422.5c-0.1,0.1-0.2,0.2-0.3,0.3c-0.1-0.2-0.4-0.3-0.6-0.3c-0.5,0.2-0.4,0.6-0.3,1
			c0.1,0.5,0.4,1,0.8,1.3c0.2,0.2,0.4,0.3,0.6,0.5c0.1,0.1,0.3,0.1,0.4,0.3c0.2,0.4,0.3,0.9,0.7,1.2c0.3,0.2,0.8,0.1,1.1,0
			c0.3-0.1,0.5-0.6,0.1-0.9c-0.1,0-0.1-0.1-0.2-0.1c-0.2-0.1-0.3-0.2-0.5-0.3c-0.2-0.1-0.4-0.3-0.6-0.5c-0.4-0.6,0.3-1.2,0.5-1.7
			c0.1-0.2,0.1-0.5,0.1-0.7c0-0.3,0-0.7,0-1c0-0.5,0.1-0.9,0.1-1.4c0-0.2-0.1-0.3-0.2-0.4c-0.2-0.3-0.5-0.3-0.9-0.1c0,0.5,0,1,0,1.5
			c0,0.3,0,0.4-0.1,0.6C43.9,422.1,43.6,422.3,43.3,422.5z"/>
		<path class="st0" d="M45.3,435.4c0-0.1-0.1-0.1-0.1-0.2c-0.1-0.1-0.2-0.1-0.3-0.2l-0.1,0.1c-0.3-0.2-0.5-0.4-0.8-0.4
			c-0.2-0.1-0.4-0.2-0.6-0.2c-0.1,0.2-0.2,0.4-0.1,0.6c0,0.1,0.2,0.3,0.3,0.3c0.2,0.1,0.4,0.2,0.6,0.2c0.1,0,0.3,0,0.4,0
			c0,0.1,0,0.4,0.1,0.5c0.1,0.1,0.2,0.1,0.3,0.1c0.2,0,0.6,0.1,0.7-0.1c0-0.1-0.1-0.3-0.1-0.4C45.5,435.6,45.4,435.5,45.3,435.4z"/>
		<path class="st0" d="M45,437.7c-0.3,0-0.5-0.2-0.8-0.3c-0.2-0.1-0.2-0.2-0.4-0.3c-0.1-0.1-0.2-0.1-0.3-0.2
			c-0.1-0.1-0.3-0.2-0.4-0.3c-0.1,0-0.2-0.1-0.3-0.1c-0.2-0.1-0.3-0.4,0-0.5c-0.2-0.4-0.4-0.6-0.8-0.8c-0.3-0.1-0.6-0.1-0.8-0.4
			c-0.3-0.3-0.7-0.7-1.1-0.9c-0.2-0.1-0.4-0.2-0.7-0.1c-0.2,0-0.3,0.1-0.3,0.3c0,0.2,0.1,0.3,0.2,0.5c0.2,0.2,0.3,0.3,0.5,0.5
			c0.2,0.2,0.5,0.3,0.6,0.5c0.1,0.2,0.2,0.4,0.3,0.6c0.3,0.4,0.9,0.5,1.3,0.8c0.2,0.1,0.3,0.3,0.4,0.5c0.1,0.2,0.2,0.3,0.4,0.5
			c0.3,0.2,0.5,0.5,0.9,0.6c0.2,0.1,0.4,0.1,0.5,0.1c0.2,0,0.4-0.1,0.5-0.1c0.4-0.1,0.6-0.3,0.6-0.7c0-0.1,0-0.2-0.1-0.2
			C45.2,437.7,45.1,437.7,45,437.7z"/>
		<path class="st0" d="M36.9,427.4c0.1,0,0.3,0,0.4,0c0.1,0,0.1,0,0.2-0.1c0.1-0.2,0.3-0.5,0.5-0.6c0.1,0.1,0.2,0.3,0.3,0.5
			c0.2,0.1,0.3,0.2,0.4,0.5c0.1,0.3,0.2,0.7,0.4,1c0.1,0.1,0.2,0.1,0.3,0.1c0.2,0,0.4,0,0.7,0c0.1,0,0.2,0,0.3-0.1
			c0.2-0.2,0.1-0.4,0-0.6c0-0.1,0-0.3-0.1-0.4c0-0.1,0-0.5-0.1-0.6c-0.2-0.2-0.6-0.1-0.9-0.2c-0.4-0.1-0.4-0.6-0.5-0.9
			c0-0.2,0-0.4-0.1-0.7c0-0.2-0.1-0.2-0.2-0.5c-0.1-0.1-0.1-0.2-0.3-0.3c-0.2-0.1-0.3-0.1-0.5-0.2c-0.3-0.1-0.7-0.2-1-0.4
			c-0.2-0.1-0.4-0.2-0.6-0.2c-0.1,0-0.2,0-0.4-0.2c-0.1-0.1-0.2-0.1-0.2-0.2c-0.1-0.2-0.1-0.2-0.3-0.2c-0.4-0.1-0.8,0.1-1.2,0.3
			c-0.3,0.1-0.6,0.3-0.9,0.5c-0.3,0.2-0.3,0.4-0.2,0.8c0,0.2,0.1,0.3,0.1,0.5c0,0.2-0.3,0.4-0.4,0.5c-0.2,0.2-0.4,0.5-0.6,0.6
			c-0.1,0.1-0.2,0.2-0.3,0.3c-0.1,0.1-0.2,0.2-0.3,0.3c-0.3,0.3-0.6,0.7-0.7,1.2c-0.1,0.3,0,0.7,0.4,0.8c0.3-0.5,0.6-1.1,1.1-1.5
			c0.2-0.1,0.4-0.3,0.5-0.4c0.1-0.2,0.2-0.4,0.3-0.5c0.1-0.1,0.3-0.2,0.4-0.3c0.1-0.1,0.3-0.2,0.5-0.2c0.4-0.1,0.4,0.6,0.4,0.8
			c0,0.4-0.1,0.8,0,1.2c0.1,0.2,0.2,0.8,0.5,0.9c0.3,0.1,0.4-0.5,0.4-0.7c0.1-0.2,0.1-0.4,0.2-0.6c0-0.2,0-0.4,0.2-0.5
			c0.1,0,0.1,0.1,0.2,0.2c0.1,0.1,0.2,0.1,0.4,0.2C36.4,427.4,36.7,427.4,36.9,427.4z"/>
		<path class="st0" d="M31.3,424.9c0.1-0.2,0.3-0.3,0.3-0.5c0-0.2,0-0.3,0-0.5c0,0,0-0.3,0.1-0.4c0.1-0.1,0.2-0.1,0.3-0.1
			c0.1,0,0.2,0,0.3-0.1c0.1-0.1,0.1-0.1,0.2-0.2c0.1-0.1,0.1-0.1,0.2-0.2c0-0.1,0-0.3,0.3-0.2c0-0.1,0.1-0.3,0-0.4
			c0-0.2-0.2-0.3-0.3-0.4c-0.1-0.1-0.2-0.2-0.4-0.3c-0.2,0-0.4,0.1-0.6,0c-0.2-0.1-0.3-0.4-0.4-0.5c-0.1-0.1,0-0.3,0-0.5
			c0-0.1,0.1-0.4,0-0.5c-0.1-0.3-0.8-0.2-1-0.3c-0.2,0-0.5-0.3-0.6-0.5c-0.1-0.3-0.2-0.6-0.5-0.8c-0.2-0.1-0.4-0.3-0.6-0.5
			c-0.1-0.1-0.2-0.2-0.4-0.3c-0.1-0.1-0.3-0.1-0.4-0.1c-0.2,0-0.2,0-0.4,0.1c-0.1,0.1-0.2,0.1-0.4,0.1c-0.1,0-0.3,0.2-0.3,0.4
			c-0.1,0.2,0.1,0.7-0.2,0.7c-0.3,0-0.6-0.3-0.8-0.3c-0.2,0-0.4,0-0.5-0.1c-0.1,0-0.2-0.1-0.4-0.2c-0.2-0.1-0.3-0.1-0.4-0.3
			c-0.1-0.2-0.1-0.4-0.2-0.5c-0.1-0.1-0.4-0.2-0.6-0.2c-0.3,0-0.5,0.1-0.8,0.2c-0.5,0.3-0.9,0.7-1.2,1.1c-0.1,0.1-0.2,0.3-0.1,0.5
			c0.1,0.2,0.4,0.2,0.6,0.2c0.3,0,0.6,0,0.9,0.1c0.2,0,0.4,0,0.5,0.2c0.1,0.1,0.1,0.3,0.2,0.4c0.1,0.2,0.1,0.4-0.1,0.5
			c-0.3,0.2-0.8,0.3-0.9,0.7c0.1,0.1,0.5,0,0.6-0.1c0.2-0.1,0.5-0.1,0.7-0.1c0.3,0,0.4,0.2,0.6,0.3c0.1,0.1,0.1,0.1,0.1,0.2
			c0.1,0.2,0.2,0.2,0.4,0.2c0.1,0.1,0.3,0.1,0.4,0.2c0.2,0.1,0.2,0.3,0.3,0.5c0,0.1,0.1,0.2,0.1,0.4c0,0.2,0,0.3,0,0.5
			c0,0.4-0.2,0.7-0.4,0.9c-0.2,0.2-0.5,0.4-0.6,0.7c-0.1,0.2-0.2,0.4-0.3,0.6c0,0-0.1,0.3-0.2,0.4c0,0.1,0.1,0.2,0.2,0.2
			c0.3,0.1,0.5,0,0.8-0.1c0.2-0.1,0.5-0.3,0.7-0.4c0.1-0.1,0.2-0.1,0.3-0.2c0.3-0.2,0.2-0.9,0.2-1.3c0-0.2,0-0.3,0.2-0.5
			c0.1-0.1,0.3-0.3,0.5-0.4c0.4-0.3,0.8-0.4,1.3-0.3c0.3,0.1,0.6,0.3,0.7,0.6c0.1,0.1,0.1,0.2,0.1,0.3c0,0.1-0.2,0.3-0.3,0.4
			c-0.2,0.2-0.4,0.4-0.6,0.6c-0.2,0.1-0.3,0.3-0.5,0.4c-0.2,0.2-0.5,0.9,0.1,0.8c0.2,0,0.5-0.2,0.7-0.3c0.2-0.1,0.4-0.1,0.7-0.1
			c0.3,0,0.6-0.1,0.8-0.2c0.2,0,0.3,0,0.5-0.1C30.7,425.5,31,425.1,31.3,424.9z"/>
		<path class="st0" d="M22,415.6c0.4,0,0.6-0.2,1-0.5c-0.2-0.6-0.8-0.8-1.3-1.2c-0.1-0.1-0.2-0.1-0.3-0.2c-0.1,0-0.3,0-0.4-0.1
			c-0.1,0-0.2-0.1-0.3-0.2c-0.4-0.3-0.7-0.5-1.2-0.6c-0.2-0.1-0.5-0.1-0.7-0.2c-0.2-0.1-0.4-0.2-0.6-0.2c-0.2-0.1-0.5-0.2-0.7-0.2
			c-0.3-0.1-0.5-0.1-0.7-0.4c-0.1-0.2-0.1-0.4-0.2-0.5c-0.1-0.1-0.1-0.3-0.2-0.4c0-0.1-0.1-0.2-0.2-0.3c-0.2-0.2-0.7-0.4-0.8-0.1
			c-0.1,0.2,0,0.5,0.1,0.7c0.1,0.3,0.3,0.6,0.5,0.9c0.2,0.4,0.5,0.7,0.8,1c0.2,0.2,0.3,0.4,0.4,0.7c0.1,0.2,0.2,0.3,0.3,0.3
			c0.2,0.1,0.5,0.1,0.7,0.3c0.1,0.1,0.1,0.1,0.2,0.1c0.3,0.1,0.6-0.2,0.9-0.2c0.2,0,0.4,0,0.6,0c0.2,0.1,0.4,0.4,0.6,0.5
			c0.1,0.1,0.2,0.1,0.3,0.2c0.1,0.1,0.2,0.3,0.4,0.3C21.5,415.6,21.7,415.6,22,415.6z"/>
		<path class="st0" d="M21.5,407.3c0-0.1,0-0.2-0.1-0.2c-0.1-0.2-0.2-0.3-0.6-0.5c0,0.2,0,0.5-0.2,0.7c-0.1,0.2-0.3,0.3-0.5,0.4
			c-0.2,0.1-0.3,0.2-0.5,0.3c-0.1,0.1-0.2,0.2-0.2,0.4c0,0.2-0.1,0.4-0.1,0.6c0.1,0.2,0.2,0.2,0.4,0.3c0.2,0.1,0.4,0,0.7,0.1
			c0.3,0.1,0.5,0.2,0.7,0.4c0.3,0.1,0.5,0.2,0.7,0.5c0.1,0.1,0.1,0.2,0.2,0.2c0.1,0.1,0.3,0.1,0.4,0c0-0.1,0.1-0.1,0.1-0.1
			c0.1,0,0.1-0.1,0.2-0.1c0.1-0.1,0.2-0.2,0.2-0.3c0.1-0.2,0.1-0.4,0.1-0.6c0-0.3,0-0.3-0.3-0.3c-0.2,0-0.4,0-0.6-0.1
			c-0.1-0.2-0.2-0.4-0.4-0.5c-0.1-0.1-0.3-0.2-0.3-0.4c0-0.1,0-0.3,0-0.4C21.5,407.5,21.5,407.4,21.5,407.3z"/>
		<path class="st0" d="M15.5,402.4c0.1-0.2-0.1-0.5-0.1-0.7c-0.4-0.2-0.8-0.4-1-0.8c-0.1-0.4-0.1-0.8-0.2-1.2
			c-0.1-0.2-0.2-0.4-0.4-0.5c-0.2-0.1-0.5-0.2-0.7-0.4c-0.2-0.3-0.1-0.7-0.3-0.9c-0.3-0.2-0.6,0.1-0.7,0.4c-0.2,0.5-0.2,1.1,0,1.6
			c0.2,0.4,0.4,0.7,0.7,1.1c0.2,0.2,0.3,0.3,0.3,0.5c0,0.2,0.1,0.3,0.1,0.5c0,0.2,0,0.4,0.1,0.6c0,0.2,0.1,0.4,0.1,0.7
			c0,0.4-0.1,0.8-0.1,1.2c0,0.3,0,0.8,0.4,0.9c0.3,0.1,0.6,0,0.8-0.2c0.3-0.3,0.4-0.7,0.5-1.1c0-0.2,0.1-0.4,0.1-0.6
			c0-0.2,0-0.4,0-0.6C15.2,402.7,15.4,402.6,15.5,402.4z"/>
		<path class="st0" d="M19.1,400.6c-0.1-0.1-0.3-0.2-0.4-0.3c-0.2-0.2-0.2-0.4-0.4-0.6c-0.2-0.2-0.5-0.2-0.7-0.4
			c-0.1-0.1-0.1-0.2-0.2-0.2c-0.2-0.1-0.4-0.2-0.5-0.3c-0.4,0.4,0,0.8,0.1,1.2c0.1,0.2,0.2,0.5,0.3,0.7c0.2,0.3,0.4,0.4,0.7,0.5
			c0.2,0,0.3,0,0.5,0c0.1,0,0.2,0.1,0.2,0.1c0.2,0.1,0.5,0.2,0.8,0.1c0-0.1,0.1-0.3,0-0.5C19.5,400.8,19.2,400.7,19.1,400.6z"/>
		<path class="st0" d="M17.7,404.1c-0.1,0.2-0.2,0.3-0.2,0.5c0,0.2,0,0.4,0,0.5c0,0.1,0,0.3,0.1,0.4c0.1,0.1,0.2,0.1,0.3,0.1
			c0.2,0,0.4-0.3,0.5-0.5c0-0.2,0-0.4,0.1-0.5c0.1-0.1,0.2-0.1,0.3-0.2c0.1-0.1,0.1-0.4,0.1-0.5c0-0.2,0.1-0.5,0-0.6
			c-0.1-0.2-0.4,0-0.7-0.2C18.1,403.4,17.9,403.8,17.7,404.1z"/>
		<path class="st0" d="M8.7,376.6c0.2,0.1,0.5,0.4,0.7,0.5c0.2,0.2,0.5,0.3,0.7,0.4c0.2,0.1,0.5,0.1,0.6,0c0.2-0.1,0.2-0.5,0.2-0.8
			c0-0.6,0-1.1,0-1.7c0-0.4-0.1-0.8,0-1.2c0.1-0.4,0.1-0.9,0.3-1.3c0.1,0,0.2,0,0.3,0c0.3,0.1,0.4,0.3,0.5,0.6
			c0.2,0.4,0.4,0.8,0.4,1.2c0,0.8-0.3,1.5-0.3,2.3c0,0.3,0,0.6,0.1,0.9c0,0.3,0.1,0.5,0.1,0.7c-0.1,0.3-0.4,0.6,0,0.8
			c0.3,0.2,0.7,0,0.9-0.2c0.2-0.2,0.4-0.3,0.6-0.5c0.2-0.2,0.4-0.3,0.5-0.5c0.3-0.4,0.3-1.1,0.3-1.6c0.1-0.5,0.2-0.9,0.1-1.4
			c0-0.5-0.4-0.9-0.6-1.3c-0.1-0.2-0.2-0.3-0.2-0.5c-0.1-0.2-0.1-0.4-0.1-0.7c0-0.3,0-0.6-0.1-0.8c0-0.3-0.1-0.6-0.2-0.9
			c-0.2-1.1,0.1-2.2,0.2-3.3c0-0.4,0-0.8,0.2-1.1c0,0,0,0,0.1-0.3c-0.1-0.5,0-1.2-0.3-1.7c0,0,0-0.1-0.1-0.1c0,0.1-0.1,0.2-0.3,0.2
			c-0.5,0.1-0.7-0.2-0.8-0.3c0,0,0-0.1-0.1-0.1c0,0-0.1,0-0.2,0c-0.1,0-0.2-0.1-0.3-0.2c-0.5-0.3-1.1-0.4-1.6-0.2
			c-0.2,0-0.3,0.1-0.4,0.2c-0.3,0.1-0.6,0.3-1.1,0.2c-0.2,0-0.3-0.1-0.4-0.1c-0.1,0-0.2-0.1-0.3-0.1c-0.1,0-0.2,0-0.3,0
			c-0.1,0-0.2,0.1-0.3,0.1c-0.2,0-0.3,0-0.5,0c-0.3,0-0.5,0-0.7,0.1c-0.1,0.1-0.3,0.2-0.4,0.3c0,0.1,0,0.2-0.1,0.2
			c-0.1,0.2-0.3,0.2-0.4,0.3c0.2,0.3,0.3,0.6,0.4,1c0.2,0.7,0.2,1.5,0.2,2.2c0,0.6,0,1.2,0.1,1.8c0.1,0.6,0.2,1.2,0.2,1.9
			c0,0.7,0.1,1.4-0.3,2c-0.1,0.1-0.2,0.3-0.3,0.4c-0.1,0.1-0.1,0.3-0.1,0.5c-0.1,0.4-0.1,1,0.2,1.4c0.1,0.2,0.4,0.3,0.5,0.5
			c0.1,0.2,0,0.4,0.2,0.5c0.2,0.2,0.3,0.1,0.5,0c0.3-0.1,0.6-0.2,0.9-0.3C8.3,376.5,8.5,376.5,8.7,376.6z"/>
		<path class="st0" d="M9.2,383.3c0.3,0,0.6,0,0.9,0c0.3,0,0.5-0.4,0.6-0.6c0.2-0.4,0.4-0.8,0.8-1c0.2-0.1,0.5-0.1,0.7-0.3
			c0.2-0.2,0.4-0.6,0.4-0.8c0-0.8-1-0.6-1.5-0.6c-0.2,0-0.5-0.1-0.6-0.2c-0.2-0.2-0.3-0.5-0.3-0.8c0-0.2-0.1-0.5-0.3-0.5
			c-0.1,0-0.2,0-0.3,0c-0.1,0-0.2-0.1-0.4,0c-0.2,0.7-0.5,1.4-0.6,2.1c-0.1,0.3-0.1,0.6-0.1,1c0,0.2,0,0.3,0.1,0.5
			c0.1,0.1,0.2,0.2,0.2,0.3c0.1,0.4-0.6,0.6-0.8,0.8c-0.2,0.2-0.3,0.5,0.1,0.6c0.1,0,0.5-0.1,0.6-0.1C8.7,383.4,8.9,383.3,9.2,383.3
			z"/>
		<path class="st0" d="M9,384.6c-0.5-0.3-0.7,1-0.7,1.2c0,0.3,0,0.6-0.1,0.9c0,0.2-0.1,0.5-0.1,0.7c0,0.4,0.4,0.8,0.8,0.6
			c0.4-0.1,0.2-0.7,0.2-1c0-0.4,0.2-0.7,0.5-0.9c0.2-0.1,0.3-0.1,0.4-0.2c0.2-0.1,0.3-0.3,0.4-0.5c0.2-0.2,0.4-0.6,0.2-0.8
			C10.4,384.5,10.1,384.4,9,384.6z"/>
	</g>
	<path class="st0" d="M15,306.7L15,306.7C15,306.6,15,306.6,15,306.7C15,306.6,15,306.6,15,306.7z"/>
	<g>
		<path class="st0" d="M40.4,314.6c0-0.5-0.2-0.7-0.5-1.1c-0.2-0.3-0.4-0.5-0.7-0.7c-0.2-0.1-0.3-0.3-0.5-0.4
			c-0.5-0.2-1.7,0.5-2.2,0.7c-0.3,0.2-0.4,0.2-0.7,0.1c-0.2-0.1-0.4-0.2-0.6-0.2c-0.2-0.1-0.1,0.2-0.4-0.1c-0.3-0.2-0.4-1-0.4-1.3
			c-0.1-0.3-0.1-0.6,0.1-0.9c0.3-0.5,0.9-0.8,1.1-1.4c-0.3,0-0.6,0-0.9-0.2c-0.1-0.1-0.2-0.2-0.3-0.3c-0.1-0.1-0.2-0.2-0.2-0.2
			l-0.1-0.1c-0.3-0.1-0.5-0.2-0.7-0.2c-0.3-0.1-0.5-0.2-0.7-0.4c-0.1-0.1-0.1-0.1-0.2-0.2l-0.1,0c-0.2-0.2-0.4-0.3-0.6-0.6l-0.2-0.3
			c-0.2-0.3-0.4-0.5-0.6-0.8c-0.1-0.1-0.1-0.2-0.2-0.4c-0.1-0.1-0.1-0.3-0.2-0.4c-0.1-0.1-0.4-0.1-0.6-0.1c-0.1,0-0.2,0.1-0.4,0.2
			c-0.1,0.1-0.3,0.2-0.4,0.3c-0.6,0.3-1.3-0.1-1.7-0.6c-0.1-0.1-0.2-0.3-0.2-0.4c0-0.1-0.1-0.2-0.1-0.2c0,0-0.1,0-0.2,0
			c-0.1,0-0.1,0-0.2,0c-0.2,0-0.3,0-0.5-0.1l-0.2,0c-0.2,0-0.5,0-0.7,0.1c-0.2,0.1-0.5,0.1-0.8,0.1c-0.1,0-0.1,0-0.2,0
			c-0.2,0.3-0.3,0.7-0.5,1c-0.1,0.2-0.3,0.3-0.4,0.6c-0.1,0.3-0.2,0.6-0.4,0.8c-0.3,0.2-0.6,0.1-0.8,0.3c-0.2,0.3,0,0.7,0,1
			c0.1,0.4,0,0.7,0.2,1c0.4,0.8,1,1.5,1.1,2.4c0.1,0.5-0.1,0.6-0.4,0.8c-0.3,0.1-0.4,0.3-0.6,0.5c-0.3,0.3-0.6,0.2-0.7,0.7
			c-0.1,0.5,0,1,0,1.5c0,0.4-0.1,0.7-0.3,1.1c-0.3,0.5-0.5,0.7-0.5,1.3c0,0.2,0.1,0.3,0.2,0.5c0.2,0.3,0.3,0.6,0.5,0.9
			c0.2,0.2,2.1,0.8,1.9,1.2c-0.9,0.3-1.8,0.7-2.6,1.2c0.6,0,1.1,0.3,1.3,0.9c0.2,0.4,0.1,0.7,0,1.1c-0.1,0.8,0,1.4-0.9,1.7
			c-0.6,0.2-1.3,0-1.9,0c-0.6,0-0.5,0.5-0.6,0.9c-0.1,0.3-0.3,0.3-0.5,0.6c-0.2,0.2,0,0.6-0.1,0.9c0,0.2-0.1,0.4-0.1,0.6
			c0,0.3,0,0.6,0.1,0.9c0.1,0.5-0.1,1,0.1,1.5c0.1,0.2,0.2,0.3,0.2,0.5c0,0.1,0,0.3,0.1,0.4c0.1,0.3,0.4,0.3,0.6,0.6
			c0.4,0.4,0.2,0.8,0.1,1.3c-0.1,0.5-0.1,1-0.2,1.5c0,0.2,0,0.9-0.2,1.1c-0.4-0.3-0.7-0.6-1.1-0.9c-0.3-0.2-0.5-0.3-0.7-0.7
			c-0.2-0.6,0.2-0.9,0.5-1.2c0.4-0.5,0.5-1.1,0.2-1.7c-0.2-0.4-0.4-0.2-0.8-0.1c-0.7,0.1-0.9-0.3-1.2-0.8c-0.1-0.2-0.2-0.3-0.3-0.6
			c-0.1-0.4,0-0.7,0-1.1c0-0.5-0.4-1.7-0.9-1.9c-0.2-0.1-1.1-0.1-1.3,0.1c0,0.5,0.3,0.9,0,1.4c-0.1,0.2-0.3,0.4-0.4,0.5
			c-0.3,0.4-0.9,0.5-1.4,0.7c-0.6,0.2-0.9,0.4-1.6,0.3c-0.2,0-0.7-0.3-1-0.3c-0.2,0-0.7,0.7-0.7,0.8c-0.3,0.4-0.7,0.7-1,1
			c0.1,0.2,0.2,0.1,0.4,0.1c0.4,0.1,0.7,0.2,1.1,0.3c0.5,0.1,1.2,0.2,1.4,0.7c0.2,0.6,0,1.7-0.4,2.2c-0.3,0.4-0.9,0.6-1.4,0.7
			c-0.6,0.1-0.8,0.6-1.3,0.9c-0.5,0.3-1,0.5-1.2,1.1c-0.3,0.7-0.5,1.1-1.1,1.5c-0.4,0.3-0.8,0.7-1.1,1.1c-0.1,0.2-0.2,0.2-0.2,0.5
			c-0.1,0.4-0.1,0.8,0,1.1c0.2,0.5,0.7,1,1.1,1.3c0.3,0.2,1,0.4,1.3,0c0.3-0.4,0.1-1.3,0-1.7c-0.2-0.7-0.8-1.4-0.4-2.2
			c0.4-0.7,1.5-1.2,2.2-1.6c0.6-0.3,1.3-0.5,2-0.5c0.1,0.3-0.3,0.6-0.5,0.8c-0.3,0.4-0.7,0.8-0.7,1.3c0.5,0.3,0.3,0.7,0.6,1.1
			c0.3,0.4,0.8,0.6,1.3,0.8c0.3,0.1,0.5,0.3,0.8,0.4c0.4,0.2,0.9,0.2,1.2,0.5c0.3,0.2,0.6,1.2,1.1,1c0.1-0.2-0.1-0.6-0.1-0.8
			c0.7-0.3,1.3-0.1,2.1,0c0.2,0-0.7-0.7-0.6-0.6c0.8,0.5,1.8,1.1,1.8,2.2c0,0.3-0.2,0.4-0.3,0.7c-0.1,0.4-0.1,0.6-0.4,0.9
			c-0.7,0.7-1.8,1-2.5,1.7c-0.3,0.3-0.6,0.7-0.6,1.2c0.1,0.5,0.5,0.8,0.8,1.2c0.2,0.3,0.4,0.7,0.6,1c0.2,0.3,0.5,0.7,0.6,1
			c0.1,0.3,0.1,0.7-0.1,1c-0.1,0.2-0.5,0.2-0.6,0.5c-0.1,0.2,0,0.5-0.1,0.7c-0.1,0.3-0.3,0.3-0.6,0.5c-0.5,0.3-0.8,0.8-1,1.4
			c-0.1,0.6,0,1.4,0.1,2c0.1,0.4,0.5,0.7,0.8,1c0.4,0.6,0.9,0.9,1.5,1.3c0.8,0.6,0.5,1.5,0.5,2.4c0,0.4,0,0.8,0.1,1.2
			c0.1,0.3,0.3,0.5,0.6,0.6c0,0,0,0,0,0H16c0,0,0,0,0,0c0-0.1,0.1-0.3,0.2-0.3c0.4-0.2,1.3-0.3,1.8,0c0.2,0.1,0.4,0.3,0.5,0.5
			c0.1,0.1,0.2,0.2,0.2,0.2c0.2,0.2,0.4,0.3,0.5,0.6c0,0.1,0.1,0.1,0.1,0.2c0.1,0.1,0.1,0.2,0.2,0.3c0.1,0.1,0.2,0.2,0.2,0.2
			c0.1,0,0.1,0.1,0.2,0.1c0.1,0.1,0.2,0.2,0.3,0.3c0.1,0.1,0.2,0.2,0.3,0.3c0.1,0,0.1,0.1,0.2,0.1c0.1,0.1,0.2,0.1,0.2,0.2l0.2,0.1
			c0.3,0.3,0.7,0.6,1,0.7c0.3,0.1,0.5,0.1,0.8,0.2L24,368c0,0,0.1,0,0.1,0c0.1,0,0.2,0,0.4,0.1c0.2,0.1,0.3,0.1,0.5,0.1l0,0.1
			c0.1-0.1,0.2-0.3,0.3-0.4c0.2-0.2,0.3-0.4,0.4-0.6c0.1-0.2,0.1-0.5,0.3-0.7c0.3-0.3,0.6-0.2,1-0.3c1-0.3,2.4-1,2.4-2.2
			c0-0.6-0.3-1.2-0.2-1.8c0.1-0.3,0.2-0.4,0.3-0.7c0.2-0.5,0.2-1.1,0.4-1.6c0.2-0.5,0.6-1,0.9-1.4c0.5-0.5,1-1,1.5-1.5
			c0.2-0.2,0.4-0.4,0.3-0.7c0-0.3-0.2-0.5-0.4-0.7c-0.4-0.4-1.1-0.4-1.4-1c-0.2-0.3-0.1-0.6-0.1-0.9c0-0.3-0.1-0.4-0.1-0.6
			c-0.2-0.7-0.5-1.1-0.3-1.7c0.1-0.4,0.3-0.6,0.6-1c0.1-0.2,0.2-0.3,0.2-0.5c0.1-0.2,0-0.6,0.1-0.8c0,0,0,0,0,0c0,0,0.1-0.1,0.1-0.5
			c0.1-0.3,0.2-0.5,0.3-0.8c0.2-0.4,0.4-0.6,0.7-0.8c0.3-0.3,0.7-0.5,0.9-0.9c0.3-0.5,0.6-1.3,0.5-1.9c-0.2-0.5-0.7-0.8-0.6-1.4
			c0.1-0.4,0.5-0.8,0.8-1.1c0.4-0.5,0.8-0.8,0.9-1.4c0.1-0.4,1.2-2.1,0.7-2.3c-0.1-0.1-0.3-0.1-0.6,0c0.1-0.2,0.3-0.3,0.4-0.5
			c0.2-0.4,0.2-0.8,0-1.2c-0.2-0.3-0.4-0.5-0.4-0.9c0-0.3,0-0.5,0-0.8c0-0.4,0-0.5,0.2-0.8c0.3-0.3,0.7-0.5,0.8-0.8
			c0.4-0.9-0.1-1.8-0.5-2.6c-0.2-0.5-0.4-1-0.3-1.6c0.1-0.5,0.5-0.8,0.6-1.3c0.1-0.3,0-0.5,0-0.8c0-0.5,0.3-1.1,0.6-1.5
			c0.2-0.3,0.5-0.7,0.9-0.9c0.3-0.2,0.6-0.3,0.9-0.4c0.7-0.3,0.8-1.5,0.8-2.2c0-0.6,0.1-0.7-0.5-0.9c-0.4-0.1-0.7-0.3-1-0.5
			c-0.3-0.1-0.5-0.2-0.8-0.3c-0.4-0.2-0.7-0.2-1.1-0.3c-0.5-0.1-1.1-0.2-1.6-0.3c-0.5-0.1-1.4-0.2-1.7-0.5c-0.2-0.2-0.4-0.7-0.1-0.9
			c0.2-0.1,0.6,0,0.8-0.1c0.3-0.1,0.6-0.3,0.9-0.5c0.3-0.2,0.6-0.2,0.9-0.4c0.7-0.5,1.7-0.1,2.1,0.6c0.2,0.4,0.2,0.6,0.7,0.4
			c0.2-0.1,0.6-0.2,0.8-0.4c0.2-0.2,0.4-0.4,0.7-0.6c0.4-0.2,0.5-0.4,0.7-0.8C40.4,315.6,40.4,315.1,40.4,314.6z M35.1,337.9
			c-0.1,0-0.3,0-0.4,0c-0.4,0-0.7-0.2-1.2-0.1c-0.3,0.1-0.6,0.2-0.8,0.3c-0.7,0.2-1.3,0.7-1.8,1.3c-0.3,0.3-0.5,0.7-0.9,1
			c-0.3,0.2-1.2,0.8-1.5,0.6c-0.5-0.3,0.5-1.1,0.8-1.2c0.4-0.3,1-0.5,1.4-0.8c0.3-0.3,0.6-0.6,1-0.8
			C32.5,337.8,35.1,336.4,35.1,337.9z"/>
		<path class="st0" d="M13.7,362c-0.2-0.2-0.3-0.4-0.5-0.7c-0.1-0.2-0.3-0.4-0.4-0.6c-0.1-0.2-0.1-0.5-0.2-0.7
			c-0.1-0.2-0.2-0.3-0.2-0.6c0-0.4-0.3-0.8-0.7-1c-0.2-0.1-0.4-0.2-0.6-0.2c-0.2-0.1-0.3-0.2-0.5-0.3c-0.2-0.1-0.3-0.3-0.3-0.5
			c0-0.2,0-0.3-0.1-0.5c-0.1-0.3-0.3-0.3-0.6-0.3c-0.3,0-0.6,0-0.8-0.2c0-0.5,0.8-0.6,1.1-0.4c0.2,0.1,0.4,0.2,0.6,0.2
			c0.3,0,0.5-0.4,0.5-0.6c0.1-0.3,0.2-0.6,0.2-0.9c0.1-0.3,0-0.6,0.1-0.8c0-0.1,0-0.3,0-0.4c0-0.2-0.1-0.4-0.1-0.6
			c-0.1-0.3,0-0.7-0.2-1c-0.3,0.3-0.6,0.7-0.9,1c-0.1,0.2-0.3,0.4-0.4,0.6c-0.1,0.2-0.3,0.5-0.5,0.7c-0.2,0.1-0.3,0.1-0.5,0.2
			c-0.4,0.1-0.6,0.4-0.9,0.7c-0.3,0.3-0.8,0.1-1.2,0.2c-0.4,0.1-0.8,0.2-1.1,0.5c-0.3,0.2-0.3,0.7-0.4,1c-0.1,0.4-0.2,0.9-0.2,1.3
			c0,0.4,0.1,0.7,0.1,1.1c0.1,0.5,0.2,1-0.1,1.5c-0.1,0.3-0.3,0.5-0.4,0.8c-0.1,0.5-0.1,1,0.2,1.4c0.2,0.3,0.4,0.6,0.6,0.9
			c0.1-0.2,0.4-0.5,1-0.8c0.4-0.2,0.8-0.2,1.1-0.2c0.1,0,0.3,0,0.4,0c0.1,0,0.1,0,0.2,0c0.2,0,0.3-0.1,0.6-0.1
			c0.2,0,0.3,0.1,0.4,0.1c0.1,0,0.2,0.1,0.3,0.1c0.3,0,0.4,0,0.7-0.2c0.2-0.1,0.3-0.2,0.6-0.2c0.7-0.2,1.5-0.1,2.1,0.3
			c0.1,0,0.1,0.1,0.1,0.1c0.1,0,0.3,0,0.5,0.2c0.1,0.1,0.1,0.1,0.2,0.2c0,0,0.1,0.1,0.1,0.1c0,0,0.1,0,0.1,0c-0.1-0.1-0.1-0.3,0-0.4
			C13.7,362.9,14.1,362.4,13.7,362z"/>
		<path class="st0" d="M14.3,322c-0.2,0.2-0.4,0.4-0.7,0.6c-0.6,0.3-0.7,0.6-0.6,1.3c0,0.4,0.1,0.5,0.4,0.7v-0.1
			c0.2,0.1,0.7,0.2,0.9,0.1c0.2-0.1,0.2-0.3,0.3-0.5c0.1-0.3,0.3-0.5,0.3-0.8c0.1-0.3,0.2-1.1-0.1-1.3
			C14.6,321.8,14.4,321.9,14.3,322z"/>
		<path class="st0" d="M12.1,316.7c0,0.4,0,0.6,0.1,1c0.1,0.3,0.3,0.8,0.7,0.8c0.1,0,0.4-0.1,0.5-0.1c0.1-0.1,0.3-0.2,0.4-0.3
			c0.2-0.1,0.3-0.1,0.5-0.1c0.3,0,0.8,0.1,0.8,0.4c0,0.3-0.4,0.5-0.6,0.7c-0.4,0.4-0.5,0.6-0.2,1.1c0.3,0.5,0.7,0.8,1.2,1.2
			c0.5,0.3,0.8,0.6,0.9,1.2c0.1,0.7,0.1,1.3-0.2,1.9c-0.2,0.4-0.2,1-0.1,1.4c0,0,0.1,0,0.1,0c0.5,0.4,1.4,0.2,1.8-0.4
			c0.4-0.5,0.3-1.2,0.3-1.8c0-0.2-0.1-0.3-0.1-0.4c0-0.2,0-0.3-0.1-0.4c-0.1-0.2-0.1-0.3-0.1-0.5c0.1-0.3,0.4-0.4,0.4-0.7
			c0.1-0.4-0.2-0.6-0.3-0.9c-0.1-0.2-0.1-0.4-0.1-0.6c-0.1-0.5,0-1-0.1-1.5c-0.1-0.3,0-0.5,0.2-0.8c0.1-0.2,0.3-0.4,0.2-0.7
			c-0.1-0.2-0.2-0.4-0.3-0.6c0-0.4,0-0.5-0.4-0.5c-0.7-0.1-0.8-0.5-0.8-1.1c0-0.7-0.1-1.2,0.2-1.8c0.2-0.5,0.3-1,0.4-1.5
			c0-0.7-0.2-1-0.5-1.6c-0.3-0.4-0.5-0.6-0.7-0.1c-0.3,0.5-0.4,1-0.4,1.6c0,0.6-0.1,1.1-0.1,1.7c0,0.6,0.1,1.4-0.7,1.5
			c-0.9,0.1-0.8-0.4-1-1c-0.1-0.3-0.1-0.6-0.5-0.6c-0.2,0-0.7,0.2-0.8,0.3c-0.5,0.5,0.6,1.2,0,1.8c-0.5,0.4-1.5,0.1-1.8-0.5
			c-0.4,0-0.7,0.1-1,0.3c-0.4,0.2-1.4,0.5-1.3,1.1c0.5,0.2,1,0.4,1.5,0.5C10.8,316.7,11.5,316.5,12.1,316.7z"/>
		<path class="st0" d="M15,306.6c0.1,0.1,0.2,0.2,0.4,0.2c0.3,0.2,0.6,0.4,0.9,0.5c0.2,0.1,0.6,0.1,0.8,0.2c0.1,0.1,0.1,0.2,0.2,0.3
			c0.1,0.1,0.2,0.2,0.3,0.2c0.1,0,0.2,0.1,0.3,0.1c0,0.1,0.1,0.1,0.1,0.2c0.1,0,0.3,0,0.4,0c0.5,0,0.6-0.9,0.3-1.2
			c-0.2-0.2-0.5-0.3-0.8-0.4c-0.3-0.1-0.6-0.3-0.9-0.5c-0.7-0.5-1.1-1.4-2.1-1.2c-0.1,0.2-0.2,0.5-0.1,0.7
			C14.9,306.1,15.2,306.3,15,306.6L15,306.6z"/>
	</g>
</g>
</svg>
