<?xml version="1.0" encoding="utf-8"?>
<!-- Generator: Adobe Illustrator 28.2.0, SVG Export Plug-In . SVG Version: 6.00 Build 0)  -->
<svg version="1.1" id="Capa_1" xmlns="http://www.w3.org/2000/svg" xmlns:xlink="http://www.w3.org/1999/xlink" x="0px" y="0px"
	 viewBox="0 0 233.4 37.8" style="enable-background:new 0 0 233.4 37.8;" xml:space="preserve">
<style type="text/css">
	.st0{fill:#EEEEEE;}
</style>
<g>
	<g>
		<path class="st0" d="M113.1,0c-0.4,1.1-0.8,2.3-1.2,3.4c1,0,1.7,0,2.6,0c-1.4,3.4-2.2,6.9-4.1,9.9c-0.6,1-1.5,1.6-2.8,1.5
			c-1-0.1-1.4-0.6-1.1-1.5c0.9-2.7,1.8-5.3,2.7-7.9c0.7-1.8,1.3-3.6,2-5.4H98.1c-0.3,0.8-0.5,1.6-0.8,2.4c-1.3,3.9-2.7,7.8-3.6,11.8
			c-0.9,4,1.3,7.2,5.2,8.3c4.2,1.2,8,0,11.4-2.6c0.6-0.4,1.1-0.9,1.7-1.4c-0.1,1.1-0.2,2.2-0.3,3.3c2.8,0,5.4,0,8.4,0
			c2.7-7.2,5.5-14.5,8.3-21.8H113.1z"/>
		<path class="st0" d="M150.9,0c-0.8,2.1-1.6,4.3-2.5,6.4c-0.8,2.1-1.7,4.2-2.6,6.3c-0.5,1.2-1.4,2.2-2.9,2.1
			c-0.4-0.1-0.7-0.2-1.1-0.3c-0.2-1.8,0.5-3.2,1.1-4.4c1.3-3.4,2.6-6.7,3.9-10.1h-13.4c-0.2,0.5-0.4,0.9-0.5,1.4
			c-1.2,3.3-2.3,6.7-3.5,10.1c-0.7,1.8-0.9,3.6-0.4,5.5c1,3.4,3.6,4.9,6.8,5.5c2.7,0.5,5.5,0.4,8.2,0c3.8-0.6,7.3-2.1,10.4-4.5
			c3.4-2.7,5.3-6.3,6.8-10.1c1-2.6,2.1-5.3,3.1-7.9H150.9z"/>
		<path class="st0" d="M194.6,8c1.1-2.7,2.1-5.3,3.1-8h-27.8c-4.4,11.3-8.8,22.6-13.2,33.9c9.9,0,19.9,0,29.9,0
			c1.6-4.1,3.2-8.2,4.8-12.4c-4.4,0-8.5,0-12.7,0c1.8-4.6,3.5-9,5.2-13.5C187.5,8,191.1,8,194.6,8z"/>
		<path class="st0" d="M207.2,0c-1.6,3.2-3.5,6.2-5.3,9.4c-2.3,4-4.5,8-6.8,12C193,25,191,28.6,189,32.2c-0.3,0.6-0.6,1.1-0.9,1.7
			c5.7,0,11.3,0,16.9,0c3.9-7.3,7.8-14.7,11.7-22c-1.2,7.3-2.3,14.6-2.9,22c5.5,0,10.9,0,16.2,0c0.2-1.6,0.3-3,0.5-4.5
			c0.3-3.1,0.7-6.2,1-9.4c0.2-2.3,0.3-4.5,0.5-6.7c0.3-3.5,0.6-7.1,1-10.7c0.1-0.9,0.2-1.8,0.4-2.6H207.2z"/>
		<path class="st0" d="M65.3,0c-0.1,0.3-0.2,0.7-0.3,1c-1.8,5.4-3.7,10.9-5.6,16.3c-0.6,1.5-1.1,3-1.7,4.5c0,0,0,0.1-0.1,0.3
			c4.1,0,8.1,0,12.3,0c2.7-7.3,5.3-14.4,7.9-21.7c0.4,0,0.9-0.1,1.4,0c1,0.1,1.7,0.9,1.5,1.8c-0.1,0.6-0.2,1.2-0.4,1.8
			c-1.3,3.6-2.6,7.2-3.9,10.8c-0.8,2.3-1.8,4.6-2.7,7c3.9,0,7.7,0,11.6,0c0.7-1.6,1.4-3.2,2-4.9c1.6-4.3,3.1-8.7,4.7-13
			c0.5-1.4,0.5-2.8,0.1-3.9H65.3z"/>
		<path class="st0" d="M17.5,5.9c-0.8,2.5-1.7,5.1-2.6,7.6c-0.3,0.9-1,1.3-1.9,1.5c-1,0.3-1.8-0.5-1.7-1.5c0.1-0.5,0.2-1,0.3-1.5
			c1.2-4,2.3-8,3.5-12H3.8C2.7,4,1.7,8.1,0.7,12.2c-0.5,2.1-0.7,4.3,0.2,6.4c1.4,3.2,4.2,4.1,7.3,4.4c4,0.3,7.7-0.4,11.2-2.5
			c2.4-1.5,4.5-3.3,6-5.8c1.9-3.3,3-6.9,4.1-10.4c0.2-0.5,0.3-0.9,0.4-1.5c-3.9,0-7.7,0-11.5,0C18.1,3.9,17.8,4.9,17.5,5.9z"/>
		<path class="st0" d="M49.3,0c-0.3,1.2-0.5,2.5-0.8,3.7c-0.1,0.3-0.2,0.7-0.3,1.1c-1.3,0-2.6,0-4.1,0c0.3-1,0.6-1.9,1-2.8
			c0.3-0.7,0.6-1.4,0.8-2H35.2c-3.1,7.3-6.3,14.6-9.4,21.9c3.7,0,7.7,0,11.7,0c1.3-2.8,2.5-5.7,3.8-8.5c1.4,0,2.8,0,4.3,0
			c-0.8,2.9-1.6,5.6-2.4,8.5c4.2,0,8.2,0,12.3,0c0.8-3.6,1.7-7.1,2.4-10.8c0.7-3.7,1.3-7.4,1.9-11.1H49.3z"/>
		<path class="st0" d="M155.1,34.7c-1.2,0-2.4,0.1-3.6,0c-3.2-0.4-6.3-0.9-9.5-1.3c-3.4-0.5-6.8-1-10.2-1.4
			c-2.9-0.3-5.8-0.6-8.7-0.9c-4-0.3-8.1-0.6-12.1-0.9c-3.4-0.2-6.7-0.4-10.1-0.5c-6.6-0.2-13.1-0.3-19.7-0.3c-2.7,0-5.5,0.1-8.2,0.2
			c-2.6,0.1-5.2,0.2-7.7,0.3c-3.8,0.2-7.6,0.4-11.4,0.7c-3.8,0.3-7.6,0.6-11.4,1c-3.1,0.3-6.1,0.8-9.2,1.2
			c-5.5,0.7-10.9,1.4-16.4,2.3c-4.4,0.7-8.8,1.5-13.3,2.2c-1.2,0.2-2.4,0.3-3.6,0.5c0-2.8,0-5.5,0-8.3c1.1-0.2,2.2-0.4,3.3-0.5
			c2-0.4,3.9-0.6,5.8-0.9c1.9-0.2,3.9-0.4,5.8-0.7c2.4-0.3,4.8-0.6,7.2-0.8c1.9-0.2,3.8-0.4,5.7-0.6c2.9-0.2,5.8-0.5,8.6-0.7
			c2.1-0.1,4.2-0.3,6.3-0.4c5-0.2,10-0.4,15-0.5c7.5-0.1,15.1-0.2,22.6-0.2c2.6,0,5.2,0.2,7.7,0.3c4.1,0.2,8.3,0.4,12.4,0.7
			c2.7,0.2,5.3,0.4,7.9,0.7c3.3,0.3,6.5,0.6,9.8,1c3.9,0.4,7.7,0.9,11.6,1.4c3.1,0.4,6.1,0.9,9.1,1.5c4.2,0.9,8.3,1.9,12.4,2.9
			c1.3,0.3,2.5,1,3.7,1.5C155.1,34.6,155.1,34.7,155.1,34.7z"/>
	</g>
</g>
</svg>
