<?xml version="1.0" encoding="utf-8"?>
<!-- Generator: Adobe Illustrator 28.2.0, SVG Export Plug-In . SVG Version: 6.00 Build 0)  -->
<svg version="1.1" id="Capa_1" xmlns="http://www.w3.org/2000/svg" xmlns:xlink="http://www.w3.org/1999/xlink" x="0px" y="0px"
	 viewBox="0 0 250 250" style="enable-background:new 0 0 250 250;" xml:space="preserve">
<style type="text/css">
	.st0{fill:#041562;}
</style>
<g>
	<g>
		<path class="st0" d="M204.6,196c-2.1,8-7,12.5-15,13.5c-0.8,0.1-1.7,0.8-2.1,1.5c-6,11.4-15,19.6-26.7,24.8
			c-0.8,0.4-1.5,1.4-1.8,2.3c-2.3,7.8-7.4,11.8-15.7,11.8c-2.7,0-5.5,0.1-8.2,0c-7.9-0.3-14.2-6.6-14.3-14.6
			c-0.1-7.8,5.8-14.3,13.6-14.9c3.7-0.2,7.4-0.1,11.1,0c4,0.1,7.4,1.9,9.9,4.9c1.1,1.3,2,1.4,3.4,0.7c8.8-4.3,15.4-10.8,20.2-19.7
			c-6.1-4.6-6.6-11.1-6.6-18c0.2-23.3,0-46.7,0.1-70c0-8.6,5.4-15,13.7-16.4c4.9-0.8,9.3,0.7,13,3.9c0.6,0.6,1.2,1.2,2.4,2.2
			c0.5-27.9-9.4-50.6-31.7-66.4c-26.7-18.9-55.3-20-83.7-3.8c-26.6,15.1-39.1,44-37.2,69.9c0.6-0.5,1.1-0.9,1.5-1.3
			c5.2-4.7,11.1-6.1,17.6-3.3c6.3,2.7,9.7,7.8,9.7,14.7c0.1,12.8,0,25.6,0,38.4c0,11.9,0,23.8,0,35.7c0,9.5-5.3,16.1-14,17.3
			c-7.1,1.1-15.7-3.4-17.8-12.7c0-0.2-0.2-0.3-0.4-0.7c-5.5,2.8-11.2,3.6-17.2,1.4c-7.6-2.8-12.8-9.8-12.9-17.9
			c-0.1-15.9-0.1-31.8,0-47.7c0-4.8,1.9-8.9,4.9-12.6c0.9-1.1,1.6-2.7,1.6-4.1c0-12.1,0.1-24.2,2.9-36.1c9.2-39.6,42.4-71,82.5-77.6
			c56-9.3,107.4,25.9,119,81.5c2.2,10.5,2,21.1,2,31.8c0,1.6,0.7,3.4,1.7,4.6c3.1,3.9,4.8,8.2,4.8,13.2c0,15.3,0.1,30.7,0,46
			c-0.1,15.1-14.7,24.3-28.5,18.1C205.8,196.5,205.3,196.3,204.6,196z M39.3,112.7C37.7,87.6,44.1,65,61.1,46.2s38.3-28.5,63.7-28.7
			c21.5-0.2,40.7,6.9,56.8,21.1c22.3,19.6,31.3,44.8,29.6,74.1c2.7,0,5,0,7.5,0c1.6-37.4-11.2-68.1-43.2-88.2
			C141.9,3.3,106.9,3.6,73.7,25.3C42.5,45.5,30.1,76,31.8,112.7C34.2,112.7,36.4,112.7,39.3,112.7z M204.8,155.5
			c0,7.8-0.1,15.6,0.1,23.4c0,1.9,0.7,4.1,1.7,5.7c2.2,3.7,6.8,5.3,11,4.2c4.5-1.2,7.6-5,7.7-9.9c0.1-5.2,0-10.3,0-15.5
			c0-10.1,0.1-20.3,0-30.4c0-6.4-4.6-10.9-10.6-10.8c-5.8,0.1-9.9,4.5-9.9,10.7C204.8,140.5,204.8,148,204.8,155.5z M45.6,155.6
			c0-7.7,0-15.4,0-23.1c0-5.7-4-10-9.4-10.3c-5.7-0.3-10.4,3.7-11,9.5c-0.1,1.5-0.1,3.1-0.1,4.7c0,14-0.1,28.1,0,42.1
			c0,6.2,4.6,10.7,10.5,10.6c5.8-0.1,10-4.4,10-10.6C45.6,170.8,45.6,163.2,45.6,155.6z M55.4,155.4
			C55.4,155.4,55.5,155.4,55.4,155.4c0.1,2.8,0.1,5.7,0.1,8.5c0,9.8-0.1,19.5,0,29.3c0,4.5,3.5,7.3,7.7,6.6c3.3-0.6,5.2-3.3,5.2-7.4
			c0-18,0-35.9,0-53.9c0-6.6,0-13.3,0-19.9c0-3.8-2.2-6.4-5.5-6.9c-4.3-0.6-7.4,2.2-7.4,6.9C55.4,130.8,55.4,143.1,55.4,155.4z
			 M195,155.6L195,155.6c-0.1-4-0.1-8-0.1-12c0-8.5,0.1-17,0-25.5c0-4.2-3-6.9-6.9-6.6c-3.7,0.2-6,3.1-6,7.6c0,18.3,0,36.7,0,55
			c0,6.2-0.1,12.5,0,18.7c0,4.2,2.8,7,6.7,6.9c3.7-0.1,6.2-2.8,6.2-7C195.1,180.4,195,168,195,155.6z"/>
	</g>
</g>
</svg>
