<?xml version="1.0" encoding="utf-8"?>
<!-- Generator: Adobe Illustrator 28.2.0, SVG Export Plug-In . SVG Version: 6.00 Build 0)  -->
<svg version="1.1" id="Capa_1" xmlns="http://www.w3.org/2000/svg" xmlns:xlink="http://www.w3.org/1999/xlink" x="0px" y="0px"
	 viewBox="0 0 250 250" style="enable-background:new 0 0 250 250;" xml:space="preserve">
<style type="text/css">
	.st0{fill:#DA251C;}
</style>
<path class="st0" d="M241.7,63.2c0-0.4-0.1-0.7-0.2-1.2c-0.2-0.5-0.3-0.7-0.3-0.7L211.9,2.9C211,1.1,209.2,0,207.2,0h-160
	c-1.9,0-3.6,1-4.5,2.6L8.6,61c-0.2,0.3-0.3,0.6-0.4,0.9V62C8,62.5,8,63,8,63.4v181.3c0,2.9,2.4,5.3,5.3,5.3h223.2
	c2.9,0,5.3-2.4,5.3-5.3L241.7,63.2z M130,58.2V10.5h74l23.9,47.7H130z M119.5,10.5v47.7H22.4l27.8-47.7H119.5z M79.3,182
	c1.8,0.7,3.9,0.3,5.3-1.1l40.2-40.2L165,181c0.9,0.9,2.2,1.4,3.4,1.4c0.6,0,1.3-0.1,1.9-0.4c1.8-0.8,3-2.5,3-4.5V68.7h57.9v170.8
	H18.5V68.7h57.8v108.9C76.3,179.5,77.5,181.3,79.3,182z"/>
</svg>
